<?xml version="1.0" standalone="no"?>
<!DOCTYPE svg PUBLIC "-//W3C//DTD SVG 20010904//EN"
 "http://www.w3.org/TR/2001/REC-SVG-20010904/DTD/svg10.dtd">
<svg version="1.0" xmlns="http://www.w3.org/2000/svg"
 width="512.000000pt" height="512.000000pt" viewBox="0 0 512.000000 512.000000"
 preserveAspectRatio="xMidYMid meet">
<metadata>
Created by potrace 1.14, written by Peter Selinger 2001-2017
</metadata>
<g transform="translate(0.000000,512.000000) scale(0.100000,-0.100000)"
fill="#000000" stroke="none">
<path d="M207 5095 c-22 -15 -45 -41 -52 -58 -10 -26 -13 -478 -13 -2312 0
-1254 -1 -2285 -1 -2290 -1 -6 -13 -12 -27 -13 -14 -1 -38 -11 -54 -22 -46
-32 -60 -76 -60 -184 0 -125 16 -168 74 -196 42 -20 45 -20 2493 -20 l2450 0
34 23 c54 36 69 77 69 188 0 53 -5 111 -11 129 -13 35 -89 91 -117 85 -16 -3
-17 154 -16 2291 1 1424 -2 2294 -8 2294 -5 0 -6 5 -3 10 10 17 -34 69 -72 85
-23 10 -70 15 -137 15 -82 0 -107 -4 -133 -20 -35 -21 -61 -56 -68 -90 -2 -13
-7 -25 -10 -28 -3 -3 -897 -6 -1986 -6 -1877 -1 -1981 0 -1990 17 -5 9 -7 17
-5 17 13 0 -32 65 -58 84 -23 18 -44 21 -144 24 -113 3 -118 2 -155 -23z
m4344 -590 c0 -47 0 -252 -1 -340 l0 -41 -105 1 c-58 0 -105 2 -106 5 0 3 -3
18 -5 34 -16 99 -103 169 -209 170 -102 0 -184 -62 -205 -157 l-12 -52 -492 1
c-270 1 -493 2 -496 3 -3 0 -6 11 -7 23 -4 48 -62 146 -77 131 -3 -4 -6 -1 -6
5 0 6 -17 19 -37 29 -49 23 -137 22 -183 -1 -47 -25 -97 -80 -105 -117 -10
-46 -24 -36 -40 29 -4 17 -63 70 -97 88 -37 19 -104 25 -152 13 -49 -13 -123
-82 -140 -131 l-12 -38 -19 43 c-23 54 -40 73 -92 104 -57 33 -133 35 -203 6
-35 -15 -87 -73 -95 -105 -4 -16 -11 -28 -16 -28 -5 0 -6 -8 -2 -17 3 -10 3
-15 -1 -11 -7 6 -14 30 -15 56 -2 28 -81 99 -128 114 -118 38 -212 -7 -275
-132 -11 -22 -17 -28 -18 -17 -1 47 -53 112 -115 145 -41 21 -131 21 -176 0
-67 -32 -116 -98 -121 -163 -1 -14 -5 -26 -8 -26 -3 -1 -51 -2 -107 -3 l-103
-2 -1 31 c-3 185 2 389 9 394 6 3 902 6 1991 6 l1981 0 1 -50z m-3764 -700
c10 -76 90 -160 164 -172 19 -3 41 -6 49 -8 8 -1 20 0 25 4 6 3 18 7 28 8 55
9 133 82 144 136 3 15 10 30 16 34 5 3 7 0 5 -8 -11 -32 76 -150 104 -141 4 1
8 -3 8 -9 0 -5 5 -7 10 -4 6 3 10 2 10 -4 0 -10 5 -11 78 -11 93 0 175 65 202
159 7 25 7 25 18 -11 12 -44 59 -108 78 -108 8 0 14 -4 14 -8 0 -13 66 -33
107 -33 94 -1 186 69 207 156 l8 30 13 -37 c7 -21 20 -49 29 -63 22 -34 87
-75 128 -82 18 -3 40 -6 48 -8 8 -1 20 0 25 4 6 3 18 7 28 8 55 9 133 82 144
136 3 15 10 30 16 34 5 3 7 0 5 -8 -7 -18 28 -87 56 -111 123 -109 306 -59
351 97 l16 55 494 0 493 0 7 -22 c3 -13 8 -35 9 -49 4 -34 69 -112 93 -111 4
1 18 -6 31 -14 12 -8 27 -12 32 -9 6 3 10 2 10 -3 0 -13 69 -5 117 13 69 26
124 105 128 180 0 16 215 19 215 3 4 -92 0 -691 -4 -695 -7 -7 -194 -8 -201
-1 -3 3 -8 18 -11 34 -12 77 -83 154 -156 170 -40 9 -112 4 -120 -9 -4 -6 -8
-8 -8 -4 0 11 -40 -12 -73 -42 -34 -32 -54 -68 -62 -112 -3 -18 -8 -35 -10
-37 -2 -3 -224 -4 -492 -4 -399 0 -489 2 -494 13 -4 8 -12 32 -18 54 -11 44
-60 102 -105 125 -26 13 -113 18 -169 9 -31 -4 -104 -77 -122 -121 l-17 -43
-14 38 c-62 175 -320 183 -391 11 -20 -48 -28 -55 -30 -24 -2 19 -34 71 -58
95 -59 59 -160 73 -237 34 -52 -26 -84 -61 -105 -112 -11 -27 -18 -35 -24 -26
-4 7 -6 16 -4 20 3 3 -6 18 -20 33 -13 15 -24 30 -24 34 0 15 -81 64 -110 67
-17 1 -34 4 -37 7 -7 8 -81 -10 -113 -26 -38 -21 -78 -65 -97 -111 l-17 -40
-13 38 c-47 135 -228 181 -339 86 -30 -27 -62 -83 -69 -124 -3 -15 -7 -30 -10
-32 -7 -7 -196 -7 -202 0 -4 4 -8 600 -5 690 1 16 11 17 108 15 l106 -3 4 -30z
m-6 -965 c15 -98 57 -157 137 -191 43 -19 83 -21 142 -7 51 13 98 57 133 123
l20 40 10 -30 c42 -129 212 -184 322 -103 37 27 55 51 77 103 9 22 17 38 18
35 1 -3 3 -16 6 -29 10 -53 78 -119 147 -141 102 -32 227 36 258 141 l13 41
13 -44 c35 -123 185 -181 303 -119 33 18 67 57 93 106 l20 40 11 -33 c37 -107
155 -164 266 -127 75 25 136 99 142 172 2 13 5 24 8 24 3 1 227 2 498 3 l492
1 0 -26 c0 -14 3 -29 8 -33 4 -4 7 -11 7 -14 1 -18 30 -60 59 -86 40 -36 69
-48 131 -51 108 -6 199 67 220 176 l6 34 99 0 c54 0 101 -3 105 -6 5 -5 8
-411 6 -656 l-1 -52 -105 1 c-58 0 -105 3 -106 6 -9 72 -24 105 -70 150 -114
111 -314 51 -350 -106 l-12 -50 -498 0 c-274 0 -498 3 -497 7 1 3 -1 25 -5 48
-9 53 -85 136 -137 148 -52 12 -103 13 -117 2 -7 -5 -13 -7 -13 -3 0 4 -15 -1
-32 -10 -43 -22 -96 -81 -103 -116 -8 -33 -25 -47 -25 -21 0 45 -88 139 -140
150 -38 9 -98 9 -125 0 -71 -23 -144 -103 -146 -160 0 -19 -2 -18 -12 8 -19
48 -44 89 -66 107 -26 22 -81 50 -81 42 0 -4 -6 -2 -12 3 -22 17 -93 8 -149
-20 -43 -21 -60 -37 -81 -75 -15 -27 -25 -52 -22 -55 3 -3 1 -8 -5 -11 -5 -3
-15 10 -21 29 -40 120 -192 177 -302 112 -47 -28 -84 -71 -94 -111 -8 -32 -24
-44 -24 -19 0 30 -48 96 -88 123 -41 27 -50 30 -107 34 -103 7 -199 -71 -220
-180 l-6 -32 -105 -1 -104 -2 0 68 c-1 37 -2 197 -3 355 -1 159 2 289 6 291
15 5 207 2 208 -3z m2 -1007 c-5 -22 29 -97 56 -126 83 -91 224 -92 313 -2 26
26 55 90 49 110 -1 6 1 6 6 2 4 -5 6 -9 4 -10 -10 -4 40 -86 70 -115 60 -59
169 -72 243 -28 54 32 73 54 95 110 l18 47 11 -38 c35 -118 184 -181 292 -124
62 32 99 78 121 151 l7 25 1 -28 c2 -65 80 -147 154 -163 77 -17 154 5 209 61
26 26 55 90 49 110 -1 5 0 8 2 5 3 -3 6 -9 7 -15 11 -59 87 -140 145 -157 125
-35 242 31 274 156 l11 45 495 -1 c358 0 495 -4 495 -12 0 -59 66 -157 120
-178 151 -59 290 23 309 183 1 4 49 6 107 5 l105 -1 1 -348 c0 -192 -3 -351
-6 -354 -3 -4 -51 -7 -106 -7 -72 -1 -100 2 -100 11 0 7 -7 34 -16 60 -30 90
-119 148 -218 142 -39 -2 -97 -25 -104 -41 -2 -5 -9 -8 -16 -8 -16 0 -48 -54
-66 -114 l-16 -50 -474 -1 c-261 0 -485 2 -497 4 -18 2 -23 10 -23 32 0 46
-43 111 -94 143 -105 66 -231 36 -297 -71 -11 -18 -21 -41 -22 -52 -2 -27 -14
-17 -22 17 -21 98 -160 166 -266 131 -69 -24 -139 -101 -139 -154 0 -9 -4 -13
-10 -10 -5 3 -10 16 -10 28 0 12 -14 38 -30 57 -16 19 -30 37 -30 40 0 3 -19
14 -42 25 -53 26 -140 26 -193 2 -44 -20 -98 -85 -110 -132 l-7 -30 -15 43
c-43 124 -204 180 -314 108 -38 -25 -92 -98 -92 -123 0 -21 -7 -15 -22 21 -44
105 -160 160 -266 125 -75 -26 -129 -88 -144 -169 l-6 -35 -100 1 c-54 0 -101
3 -104 6 -5 4 -8 436 -6 645 l1 62 108 -2 c79 -2 106 -5 105 -14z m-24 -982
c25 -1 32 -5 27 -16 -8 -21 26 -94 60 -131 32 -33 96 -62 132 -59 12 1 22 -3
22 -8 0 -5 6 -4 13 2 8 6 16 9 19 6 3 -3 22 2 42 10 48 20 113 88 121 126 8
37 21 37 28 2 11 -50 74 -113 130 -128 4 -2 8 -3 10 -5 1 -1 16 -3 32 -5 17
-2 35 -4 40 -6 6 -1 19 1 30 5 11 4 32 12 46 17 42 16 98 78 110 121 l10 41
24 -49 c13 -27 30 -56 37 -64 23 -27 82 -58 122 -64 22 -4 42 -8 44 -10 2 -3
19 2 38 10 19 8 36 13 38 12 2 -2 22 12 45 30 35 28 60 68 84 132 3 9 6 6 6
-9 2 -64 96 -159 161 -164 17 -1 30 -6 30 -10 0 -4 8 -4 18 1 9 5 27 8 40 7
12 -1 22 2 22 7 0 4 3 7 8 6 12 -3 66 29 84 51 22 26 53 84 50 94 -1 4 2 7 7
7 5 0 12 -13 16 -29 14 -64 118 -142 183 -136 12 1 22 -2 22 -7 0 -5 6 -6 13
-1 12 7 17 9 47 15 57 13 125 87 135 149 4 21 11 41 16 45 7 4 908 9 975 5 5
-1 16 -24 23 -52 9 -34 26 -63 51 -89 38 -39 105 -75 120 -65 5 3 11 1 15 -5
4 -6 12 -7 18 -3 7 4 19 8 27 8 80 4 160 74 180 155 7 28 15 50 18 51 9 1 96
1 157 0 l50 -1 -2 -206 c-1 -114 -5 -209 -8 -212 -3 -3 -899 -6 -1992 -6
l-1988 -1 2 210 c2 240 -7 222 101 218 31 -1 72 -2 91 -2z"/>
</g>
</svg>
