<?xml version="1.0" standalone="no"?>
<!DOCTYPE svg PUBLIC "-//W3C//DTD SVG 20010904//EN"
 "http://www.w3.org/TR/2001/REC-SVG-20010904/DTD/svg10.dtd">
<svg version="1.0" xmlns="http://www.w3.org/2000/svg"
 width="512.000000pt" height="512.000000pt" viewBox="0 0 512.000000 512.000000"
 preserveAspectRatio="xMidYMid meet">
<metadata>
Created by potrace 1.14, written by Peter Selinger 2001-2017
</metadata>
<g transform="translate(0.000000,512.000000) scale(0.100000,-0.100000)"
fill="#000000" stroke="none">
<path d="M315 5006 c-16 -7 -37 -22 -46 -32 -17 -19 -35 -63 -31 -76 1 -5 -3
-8 -9 -8 -8 0 -8 -5 1 -15 10 -12 9 -15 -6 -16 -15 0 -16 -2 -4 -7 16 -8 23
-42 9 -42 -6 0 -5 -9 1 -20 7 -13 7 -20 1 -20 -7 0 -7 -9 -1 -24 7 -20 6 -26
-8 -29 -14 -4 -14 -5 -1 -6 15 -1 19 -47 4 -70 -3 -6 -1 -11 4 -11 6 0 11 -5
11 -11 0 -5 -5 -7 -12 -3 -7 5 -8 3 -3 -6 11 -17 12 -120 1 -120 -5 0 -3 -7 4
-15 10 -12 10 -15 -1 -15 -9 0 -10 -3 -4 -8 13 -9 16 -42 4 -42 -5 0 -4 -11 1
-25 7 -18 6 -25 -3 -25 -8 0 -7 -4 3 -10 13 -9 13 -10 0 -10 -9 0 -11 -3 -5
-8 13 -9 16 -42 4 -42 -5 0 -4 -11 1 -25 8 -21 6 -25 -8 -26 -14 0 -14 -2 -2
-7 11 -5 15 -24 15 -75 0 -37 -4 -67 -9 -67 -5 0 -3 -7 4 -15 10 -12 10 -15
-1 -15 -9 0 -10 -3 -4 -8 13 -9 16 -42 4 -42 -6 0 -5 -9 1 -20 8 -14 8 -20 0
-20 -6 0 -8 -5 -5 -11 12 -18 13 -59 1 -59 -7 0 -7 -3 -1 -8 13 -9 16 -42 4
-42 -6 0 -5 -9 1 -20 7 -13 7 -20 1 -20 -7 0 -7 -9 -1 -24 7 -20 6 -26 -8 -29
-14 -4 -14 -5 -1 -6 15 -1 19 -47 4 -70 -3 -6 -1 -11 4 -11 6 0 11 -5 11 -11
0 -5 -5 -7 -12 -3 -7 5 -8 3 -3 -6 11 -17 12 -120 1 -120 -5 0 -3 -7 4 -15 10
-12 10 -15 -1 -15 -9 0 -10 -3 -4 -8 13 -9 16 -42 4 -42 -5 0 -4 -11 1 -25 7
-18 6 -25 -3 -25 -8 0 -7 -4 3 -10 13 -9 13 -10 0 -10 -9 0 -11 -3 -5 -8 13
-9 16 -42 4 -42 -5 0 -4 -11 1 -25 8 -21 6 -25 -8 -26 -14 0 -14 -2 -2 -7 11
-5 15 -24 15 -75 0 -37 -4 -67 -9 -67 -5 0 -3 -7 4 -15 10 -12 10 -15 -1 -15
-9 0 -10 -3 -4 -8 13 -9 16 -42 4 -42 -6 0 -5 -9 1 -20 8 -14 8 -20 0 -20 -6
0 -8 -5 -5 -11 12 -18 13 -59 1 -59 -7 0 -7 -3 -1 -8 13 -9 16 -42 4 -42 -6 0
-5 -9 1 -20 7 -13 7 -20 1 -20 -7 0 -7 -9 -1 -24 7 -20 6 -26 -8 -29 -14 -4
-14 -5 -1 -6 15 -1 19 -47 4 -70 -3 -6 -1 -11 4 -11 6 0 11 -5 11 -11 0 -5 -5
-7 -12 -3 -7 5 -8 3 -3 -6 11 -17 12 -120 1 -120 -5 0 -3 -7 4 -15 10 -12 10
-15 -1 -15 -9 0 -10 -3 -4 -8 13 -9 16 -42 4 -42 -5 0 -4 -11 1 -25 7 -18 6
-25 -3 -25 -8 0 -7 -4 3 -10 13 -9 13 -10 0 -10 -9 0 -11 -3 -5 -8 13 -9 16
-42 4 -42 -5 0 -4 -11 1 -25 8 -21 6 -25 -8 -26 -14 0 -14 -2 -2 -7 11 -5 15
-24 15 -75 0 -37 -4 -67 -9 -67 -5 0 -3 -7 4 -15 10 -12 10 -15 -1 -15 -9 0
-10 -3 -4 -8 13 -9 16 -42 4 -42 -6 0 -5 -9 1 -20 8 -14 8 -20 0 -20 -6 0 -8
-5 -5 -11 12 -18 13 -59 1 -59 -7 0 -7 -3 -1 -8 13 -9 16 -42 4 -42 -6 0 -5
-9 1 -20 7 -13 7 -20 1 -20 -7 0 -7 -9 -1 -24 7 -20 6 -26 -8 -29 -14 -4 -14
-5 -1 -6 15 -1 19 -47 4 -70 -3 -6 -1 -11 4 -11 6 0 11 -5 11 -11 0 -5 -5 -7
-12 -3 -7 5 -8 3 -3 -6 11 -17 12 -120 1 -120 -5 0 -3 -7 4 -15 10 -12 10 -15
-1 -15 -9 0 -10 -3 -4 -8 13 -9 16 -42 4 -42 -5 0 -4 -11 1 -25 7 -18 6 -25
-3 -25 -8 0 -7 -4 3 -10 13 -9 13 -10 0 -10 -9 0 -11 -3 -5 -8 13 -9 16 -42 4
-42 -5 0 -4 -11 1 -25 8 -21 6 -25 -8 -26 -14 0 -14 -2 -2 -7 11 -5 15 -24 15
-75 0 -37 -4 -67 -9 -67 -5 0 -3 -7 4 -15 10 -12 10 -15 -1 -15 -9 0 -10 -3
-4 -8 13 -9 16 -42 4 -42 -6 0 -5 -9 1 -20 8 -14 8 -20 0 -20 -6 0 -8 -5 -5
-11 12 -18 13 -59 1 -59 -7 0 -7 -3 -1 -8 13 -9 16 -42 4 -42 -6 0 -5 -9 1
-20 7 -13 7 -20 1 -20 -7 0 -7 -9 -1 -24 7 -20 6 -26 -8 -29 -14 -4 -14 -5 -1
-6 15 -1 19 -47 4 -70 -3 -6 -1 -11 4 -11 6 0 11 -5 11 -11 0 -5 -5 -7 -12 -3
-7 5 -8 3 -3 -6 11 -17 12 -120 1 -120 -5 0 -3 -7 4 -15 10 -12 10 -15 -1 -15
-9 0 -10 -3 -4 -8 6 -4 10 -14 10 -22 0 -8 -4 -18 -10 -22 -6 -5 -4 -12 5 -18
13 -8 12 -10 -5 -11 -19 0 -19 -1 -1 -8 17 -6 15 -9 -12 -20 -17 -7 -36 -10
-43 -5 -7 4 -10 3 -5 -4 3 -6 -2 -16 -12 -21 -27 -15 -52 -72 -52 -121 0 -28
-4 -39 -12 -34 -7 5 -8 3 -2 -7 4 -8 9 -37 10 -65 1 -28 7 -60 13 -72 7 -13 9
-27 6 -32 -4 -6 1 -7 12 -3 16 6 16 5 4 -10 -8 -10 -11 -20 -7 -24 3 -3 6 -1
6 6 0 8 5 9 18 2 16 -9 24 -11 38 -11 4 0 1 -6 -5 -14 -9 -11 -9 -16 0 -22 8
-4 9 -3 5 4 -4 7 -4 12 1 13 4 0 19 2 32 5 20 4 22 2 12 -10 -9 -11 -9 -16 0
-22 8 -5 9 -3 5 5 -10 15 25 11 37 -4 5 -6 7 -4 4 5 -2 8 -10 14 -16 13 -6 -2
-11 2 -11 8 0 11 38 3 54 -12 13 -12 26 -11 26 2 0 5 -5 7 -10 4 -6 -3 -10 -2
-10 3 0 5 19 8 43 7 23 -2 66 -4 95 -4 37 -1 51 -4 46 -13 -4 -6 -3 -8 4 -4 5
3 12 1 14 -6 2 -6 12 -12 21 -14 9 -1 15 2 11 7 -3 5 -10 6 -16 3 -8 -5 -9 -1
-5 10 4 10 3 15 -3 11 -6 -3 -10 -1 -10 5 0 14 62 3 72 -13 5 -9 10 -8 20 2
10 10 10 12 1 7 -7 -4 -13 -2 -13 3 0 6 10 9 23 7 12 -3 41 -5 65 -5 24 -1 41
-5 38 -10 -4 -5 2 -8 11 -7 10 2 21 -2 25 -7 7 -12 38 -19 37 -9 -5 34 2 40
44 37 23 -2 66 -4 95 -4 37 -1 51 -4 46 -13 -4 -6 -3 -8 4 -4 5 3 12 1 14 -6
2 -6 12 -12 21 -14 9 -1 15 2 11 7 -3 5 -10 6 -16 3 -8 -5 -9 -1 -5 10 4 10 3
15 -3 11 -6 -3 -10 -1 -10 5 0 14 62 3 72 -13 5 -9 10 -8 20 2 10 10 10 12 0
7 -6 -4 -12 -2 -12 3 0 6 10 9 23 7 12 -3 41 -5 65 -5 24 -1 41 -5 38 -10 -4
-5 2 -8 11 -7 10 2 21 -2 25 -7 7 -12 38 -19 37 -9 -5 34 2 40 44 37 23 -2 66
-4 95 -4 37 -1 51 -4 46 -13 -4 -6 -3 -8 4 -4 5 3 12 1 14 -6 2 -6 12 -12 21
-14 9 -1 15 2 11 7 -3 5 -10 6 -16 3 -8 -5 -9 -1 -5 10 4 10 3 15 -3 11 -6 -3
-10 -1 -10 5 0 14 62 3 72 -13 5 -9 10 -8 20 2 10 10 10 12 1 7 -7 -4 -13 -2
-13 3 0 6 10 9 23 7 12 -3 41 -5 65 -5 24 -1 41 -5 38 -10 -4 -5 2 -8 11 -7
10 2 21 -2 25 -7 7 -12 38 -19 37 -9 -5 34 2 40 44 37 23 -2 66 -4 95 -4 37
-1 51 -4 46 -13 -4 -6 -3 -8 4 -4 5 3 12 1 14 -6 2 -6 12 -12 21 -14 9 -1 15
2 11 7 -3 5 -10 6 -16 3 -8 -5 -9 -1 -5 10 4 10 3 15 -3 11 -6 -3 -10 -1 -10
5 0 14 62 3 72 -13 5 -9 10 -8 20 2 10 10 10 12 1 7 -7 -4 -13 -2 -13 3 0 6
10 9 23 7 12 -3 41 -5 65 -5 24 -1 41 -5 38 -10 -4 -5 2 -8 11 -7 10 2 21 -2
25 -7 7 -12 38 -19 37 -9 -5 34 2 40 44 37 23 -2 66 -4 95 -4 37 -1 51 -4 46
-13 -4 -6 -3 -8 4 -4 5 3 12 1 14 -6 2 -6 12 -12 21 -14 9 -1 15 2 11 7 -3 5
-10 6 -16 3 -8 -5 -9 -1 -5 10 4 10 3 15 -3 11 -6 -3 -10 -1 -10 5 0 14 62 3
72 -13 5 -9 10 -8 20 2 10 10 10 12 1 7 -7 -4 -13 -2 -13 3 0 6 10 9 23 7 12
-3 41 -5 65 -5 24 -1 41 -5 38 -10 -4 -5 2 -8 11 -7 10 2 21 -2 25 -7 7 -12
38 -19 37 -9 -5 34 2 40 44 37 23 -2 66 -4 95 -4 37 -1 51 -4 46 -13 -4 -6 -3
-8 4 -4 5 3 12 1 14 -6 2 -6 12 -12 21 -14 9 -1 15 2 11 7 -3 5 -10 6 -16 3
-8 -5 -9 -1 -5 10 4 10 3 15 -3 11 -6 -3 -10 -1 -10 5 0 14 62 3 72 -13 5 -9
10 -8 20 2 10 10 10 12 1 7 -7 -4 -13 -2 -13 3 0 6 10 9 23 7 12 -3 41 -5 65
-5 24 -1 41 -5 38 -10 -4 -5 2 -8 11 -7 10 2 21 -2 25 -7 7 -12 38 -19 37 -9
-5 34 2 40 44 37 23 -2 66 -4 95 -4 37 -1 51 -4 46 -13 -4 -6 -3 -8 4 -4 5 3
12 1 14 -6 2 -6 12 -12 21 -14 9 -1 15 2 11 7 -3 5 -10 6 -16 3 -8 -5 -9 -1
-5 10 4 10 3 15 -3 11 -6 -3 -10 -1 -10 5 0 14 62 3 72 -13 5 -9 10 -8 20 2
10 10 10 12 1 7 -7 -4 -13 -2 -13 3 0 6 10 9 23 7 12 -3 41 -5 65 -5 24 -1 41
-5 38 -10 -4 -5 2 -8 11 -7 10 2 21 -2 25 -7 7 -12 38 -19 37 -9 -5 34 2 40
44 37 23 -2 66 -4 95 -4 37 -1 51 -4 46 -13 -4 -6 -3 -8 4 -4 5 3 12 1 14 -6
2 -6 12 -12 21 -14 9 -1 15 2 11 7 -3 5 -10 6 -16 3 -8 -5 -9 -1 -5 10 4 10 3
15 -3 11 -6 -3 -10 -1 -10 5 0 14 62 3 72 -13 5 -9 10 -8 20 2 10 10 10 12 0
7 -6 -4 -12 -2 -12 3 0 6 10 9 23 7 12 -3 41 -5 65 -5 24 -1 41 -5 38 -10 -4
-5 2 -8 11 -7 10 2 21 -2 25 -7 7 -12 38 -19 37 -9 -5 34 2 40 44 37 23 -2 66
-4 95 -4 37 -1 51 -4 46 -13 -4 -6 -3 -8 4 -4 5 3 12 1 14 -6 2 -6 12 -12 21
-14 9 -1 15 2 11 7 -3 5 -10 6 -16 3 -8 -5 -9 -1 -5 10 4 10 3 15 -3 11 -6 -3
-10 -1 -10 5 0 14 62 3 72 -13 5 -9 10 -8 20 2 10 10 10 12 1 7 -7 -4 -13 -2
-13 3 0 6 10 9 23 7 12 -3 41 -5 65 -5 24 -1 41 -5 38 -10 -4 -5 2 -8 11 -7
10 2 21 -2 25 -7 7 -12 38 -19 37 -9 -5 32 3 38 39 35 20 -2 63 -3 95 -3 44 1
57 -2 51 -11 -4 -7 -3 -9 4 -5 5 3 13 0 16 -6 3 -7 4 -4 1 7 -4 19 0 21 35 20
23 0 44 -5 48 -11 5 -8 11 -7 22 4 13 14 12 15 -3 9 -12 -4 -16 -3 -11 4 3 6
15 8 26 6 15 -4 18 -2 14 10 -6 14 -4 14 11 2 13 -11 15 -11 9 -1 -5 8 -1 21
9 32 15 16 39 130 27 130 -2 0 2 8 9 17 10 11 10 14 2 9 -10 -5 -13 5 -13 43
0 93 -32 135 -125 166 -16 5 -17 8 -5 15 13 9 13 10 0 10 -13 0 -13 1 0 10 13
9 13 11 0 20 -13 9 -13 10 0 10 12 0 13 2 1 9 -11 7 -11 9 0 14 11 4 11 6 1 6
-10 1 -10 6 -2 21 7 14 7 20 0 20 -5 0 -10 5 -10 11 0 5 5 7 12 3 7 -5 8 -3 3
6 -15 24 -12 60 5 60 9 0 11 3 4 8 -15 10 -25 42 -13 42 6 0 6 7 -1 20 -8 15
-8 20 2 20 8 0 9 3 3 8 -15 10 -12 35 5 50 8 8 10 11 4 8 -7 -3 -14 3 -17 14
-3 11 0 20 6 20 7 0 5 5 -3 10 -13 9 -13 10 0 10 12 0 13 2 1 9 -11 7 -11 9 0
14 10 4 10 6 2 6 -7 1 -13 6 -13 12 0 5 5 7 12 3 7 -5 8 -3 3 6 -15 24 -12 60
5 60 9 0 11 3 4 8 -15 10 -25 42 -13 42 6 0 6 7 -1 20 -8 15 -8 20 2 20 8 0 9
3 3 8 -15 10 -12 35 5 50 8 8 10 11 4 8 -7 -3 -14 3 -17 14 -3 11 0 20 6 20 7
0 5 5 -3 10 -13 9 -13 10 0 10 12 0 13 2 1 9 -11 7 -11 9 0 14 10 4 10 6 2 6
-7 1 -13 6 -13 12 0 5 5 7 12 3 7 -5 8 -3 3 6 -15 24 -12 60 5 60 9 0 11 3 4
8 -15 10 -25 42 -13 42 6 0 6 7 -1 20 -8 15 -8 20 2 20 8 0 9 3 3 8 -15 10
-12 35 5 50 8 8 10 11 4 8 -7 -3 -14 3 -17 14 -3 11 0 20 6 20 7 0 5 5 -3 10
-13 9 -13 10 0 10 12 0 13 2 1 9 -11 7 -11 9 0 14 10 4 10 6 2 6 -7 1 -13 6
-13 12 0 5 5 7 12 3 7 -5 8 -3 3 6 -15 24 -12 60 5 60 9 0 11 3 4 8 -15 10
-25 42 -13 42 6 0 6 7 -1 20 -8 15 -8 20 2 20 8 0 9 3 3 8 -15 10 -12 35 5 50
8 8 10 11 4 8 -7 -3 -14 3 -17 14 -3 11 0 20 6 20 7 0 5 5 -3 10 -13 9 -13 10
0 10 12 0 13 2 1 9 -11 7 -11 9 0 14 10 4 10 6 2 6 -7 1 -13 6 -13 12 0 5 5 7
12 3 7 -5 8 -3 3 6 -15 24 -12 60 5 60 9 0 11 3 4 8 -15 10 -25 42 -13 42 6 0
6 7 -1 20 -8 15 -8 20 2 20 8 0 9 3 3 8 -15 10 -12 35 5 50 8 8 10 11 4 8 -7
-3 -14 3 -17 14 -3 11 0 20 6 20 7 0 5 5 -3 10 -13 9 -13 10 0 10 12 0 13 2 1
9 -11 7 -11 9 0 14 10 4 10 6 2 6 -7 1 -13 6 -13 12 0 5 5 7 12 3 7 -5 8 -3 3
6 -15 24 -12 60 5 60 9 0 11 3 4 8 -15 10 -25 42 -13 42 6 0 6 7 -1 20 -8 15
-8 20 2 20 8 0 9 3 3 8 -15 10 -12 35 5 50 8 8 10 11 4 8 -7 -3 -14 3 -17 14
-3 11 0 20 6 20 7 0 5 5 -3 10 -13 9 -13 10 0 10 12 0 13 2 1 9 -11 7 -11 9 0
14 10 4 10 6 2 6 -7 1 -13 6 -13 12 0 5 5 7 12 3 7 -5 8 -3 3 6 -15 24 -12 60
5 60 9 0 11 3 4 8 -15 10 -25 42 -13 42 6 0 6 7 -1 20 -8 15 -8 20 2 20 8 0 9
3 3 8 -15 10 -12 35 5 50 8 8 10 11 4 8 -7 -3 -14 3 -17 14 -3 11 0 20 6 20 7
0 5 5 -3 10 -13 9 -13 10 0 10 12 0 13 2 1 9 -11 7 -11 9 0 14 10 4 10 6 2 6
-7 1 -13 6 -13 12 0 5 5 7 12 3 7 -5 8 -3 3 6 -15 24 -12 60 5 60 9 0 11 3 4
8 -15 10 -25 42 -13 42 6 0 6 7 -1 20 -8 15 -8 20 2 20 8 0 9 3 3 8 -15 10
-12 35 5 50 8 8 10 11 4 8 -7 -3 -14 3 -17 14 -3 11 0 20 6 20 7 0 5 5 -3 10
-13 9 -13 10 0 10 12 0 13 2 1 9 -11 7 -11 9 0 14 10 4 10 6 2 6 -7 1 -13 6
-13 12 0 5 5 7 12 3 7 -5 8 -3 3 6 -15 24 -12 60 5 60 9 0 11 3 4 8 -15 10
-25 42 -13 42 6 0 6 7 -1 20 -8 15 -8 20 2 20 8 0 9 3 3 8 -15 10 -12 35 5 50
8 8 10 11 4 8 -7 -3 -14 3 -17 14 -3 11 0 20 6 20 7 0 5 5 -3 10 -13 9 -13 10
0 10 12 0 13 2 1 9 -11 7 -11 9 0 14 10 4 10 6 2 6 -7 1 -13 6 -13 12 0 5 5 7
12 3 7 -5 8 -3 3 6 -15 24 -12 60 5 60 9 0 11 3 4 8 -15 10 -25 42 -13 42 6 0
6 7 -1 20 -8 15 -8 20 2 20 8 0 9 3 3 8 -15 10 -12 35 5 50 8 8 10 11 4 8 -7
-3 -14 3 -17 14 -3 11 0 20 6 20 7 0 5 5 -3 10 -13 9 -13 10 0 10 12 0 13 2 1
9 -11 7 -11 9 0 14 10 4 10 6 2 6 -7 1 -13 6 -13 12 0 5 5 7 12 3 7 -5 8 -3 3
6 -15 24 -12 60 5 60 9 0 11 3 4 8 -15 10 -25 42 -13 42 6 0 6 7 -1 20 -8 15
-8 20 2 20 8 0 9 3 3 8 -15 10 -12 35 5 50 8 8 10 11 4 8 -7 -3 -14 3 -17 14
-3 11 0 20 6 20 7 0 5 5 -3 10 -13 9 -13 10 0 10 12 0 13 2 1 9 -11 7 -11 9 0
14 10 4 10 6 2 6 -7 1 -13 6 -13 12 0 5 5 7 12 3 7 -5 8 -3 3 6 -15 24 -12 60
5 60 9 0 11 3 4 8 -15 10 -25 42 -13 42 6 0 6 7 -1 20 -8 15 -8 20 2 20 8 0 9
3 3 8 -15 10 -12 35 5 50 8 8 10 11 4 8 -7 -3 -14 3 -17 14 -3 11 0 20 6 20 7
0 5 5 -3 10 -13 9 -13 10 0 10 12 0 13 2 1 9 -11 7 -11 9 0 14 10 4 10 6 2 6
-7 1 -13 6 -13 12 0 5 5 7 12 3 7 -5 8 -3 3 6 -15 24 -12 60 5 60 9 0 11 3 4
8 -15 10 -25 42 -13 42 6 0 6 7 -1 20 -8 15 -8 20 2 20 8 0 9 3 3 8 -15 10
-12 35 5 50 8 8 10 11 4 8 -7 -3 -14 3 -17 14 -3 11 0 20 6 20 7 0 5 5 -3 10
-13 9 -13 10 0 10 12 0 13 2 1 9 -11 7 -11 9 0 14 10 4 10 6 2 6 -7 1 -13 6
-13 12 0 5 5 7 12 3 6 -4 8 -3 5 3 -3 5 -7 28 -8 51 -2 23 -7 42 -12 42 -5 0
-7 7 -3 15 3 8 1 15 -4 15 -5 0 -12 9 -15 20 -3 11 -12 20 -19 20 -8 0 -19 6
-25 14 -8 10 -41 14 -120 15 -122 2 -158 -9 -201 -62 -14 -17 -19 -28 -12 -24
18 12 15 3 -10 -24 l-23 -24 -1895 0 -1894 0 -6 22 c-3 13 -13 31 -22 42 -9
11 -14 22 -11 24 3 3 -13 15 -36 26 -33 17 -58 21 -138 21 -59 -1 -110 -6
-128 -14z m365 -570 c-6 -17 -6 -25 0 -21 6 3 10 13 10 21 0 15 12 19 24 7 10
-11 37 -12 30 -2 -3 5 0 9 6 9 6 0 8 5 5 10 -3 6 -2 10 3 10 5 0 14 -10 21
-22 l12 -23 -5 22 c-2 13 0 26 5 29 11 6 29 -37 21 -51 -3 -5 2 -4 11 4 14 11
15 17 5 30 -7 9 -8 13 -4 9 5 -4 16 -2 25 5 14 11 14 10 2 -5 -9 -13 -10 -18
-2 -18 7 0 10 -4 7 -8 -2 -4 5 -8 17 -9 12 0 16 1 9 4 -6 3 -9 10 -6 15 5 7 2
8 -6 3 -9 -5 -11 -4 -6 3 11 18 22 14 35 -10 11 -22 11 -21 6 7 -4 24 -3 26 5
13 6 -9 17 -15 25 -12 8 4 12 11 8 18 -5 8 -3 8 8 0 8 -6 33 -10 57 -9 41 2
49 -6 42 -40 -1 -5 7 -2 18 8 19 17 37 23 28 9 -2 -4 5 -8 17 -9 12 0 16 1 9
4 -6 3 -10 8 -7 13 3 5 -6 7 -20 5 -14 -1 -27 1 -30 4 -2 4 11 7 30 8 24 0 36
-5 44 -21 10 -19 11 -18 6 9 -4 24 -3 26 5 13 6 -9 17 -15 25 -12 8 4 12 11 8
18 -5 8 -3 8 8 0 8 -6 33 -10 57 -9 41 2 49 -6 43 -39 -1 -5 5 -4 14 4 12 10
13 16 3 29 -7 9 -8 13 -4 9 5 -4 16 -2 25 5 14 11 14 10 2 -5 -9 -13 -10 -18
-2 -18 7 0 10 -4 7 -8 -2 -4 5 -8 17 -9 12 0 16 1 9 4 -6 3 -9 10 -6 15 5 7 2
8 -6 3 -9 -5 -11 -4 -6 3 11 18 22 14 35 -10 11 -22 11 -21 6 7 -4 24 -3 26 5
13 6 -9 17 -15 25 -12 8 4 12 11 8 18 -5 8 -3 8 8 0 8 -6 33 -10 57 -9 41 2
49 -6 42 -40 -1 -5 7 -2 18 8 19 17 37 23 28 9 -2 -4 5 -8 17 -9 12 0 16 1 9
4 -6 3 -10 8 -7 13 3 5 -6 7 -20 5 -14 -1 -27 1 -30 4 -2 4 11 7 30 8 24 0 36
-5 44 -21 10 -19 11 -18 6 9 -4 24 -3 26 5 13 6 -9 17 -15 25 -12 8 4 12 11 8
18 -5 8 -3 8 8 0 8 -6 33 -10 57 -9 41 2 49 -6 43 -39 -1 -5 5 -4 14 4 12 10
13 16 3 29 -7 9 -8 13 -4 9 5 -4 16 -2 25 5 14 11 14 10 2 -5 -9 -13 -10 -18
-2 -18 7 0 10 -4 7 -8 -2 -4 5 -8 17 -9 12 0 16 1 9 4 -6 3 -9 10 -6 15 5 7 2
8 -6 3 -9 -5 -11 -4 -6 3 11 18 22 14 35 -10 11 -22 11 -21 6 7 -4 24 -3 26 5
13 11 -19 44 -13 33 6 -4 7 -1 7 7 -1 9 -8 18 -9 25 -3 7 6 11 2 12 -12 3 -28
11 -34 26 -18 10 10 9 11 -2 5 -9 -5 -12 -3 -9 5 6 20 28 24 28 6 0 -8 4 -17
9 -20 5 -4 7 4 5 16 -2 13 -2 17 2 11 3 -7 10 -13 15 -13 6 0 8 4 5 8 -3 5 2
9 10 9 8 0 13 -6 10 -12 -2 -7 0 -18 6 -26 8 -11 9 -10 4 4 -3 9 -1 17 5 17 6
0 7 5 3 12 -4 7 -3 8 5 4 6 -4 17 -3 24 3 10 7 13 5 14 -11 3 -28 11 -34 26
-18 10 10 9 11 -2 5 -9 -5 -12 -3 -9 5 6 20 28 24 28 6 0 -8 4 -17 9 -20 5 -4
7 4 5 16 -2 13 -2 17 2 11 3 -7 10 -13 15 -13 6 0 8 4 5 8 -3 5 2 9 10 9 8 0
13 -6 10 -12 -2 -7 0 -18 6 -26 8 -11 9 -10 4 4 -3 9 -1 17 5 17 6 0 7 5 3 12
-4 7 -3 8 5 4 6 -4 17 -3 24 3 10 7 13 5 14 -11 3 -28 11 -34 26 -18 10 10 9
11 -2 5 -9 -5 -12 -3 -9 5 6 20 28 24 28 6 0 -8 4 -17 9 -20 5 -4 7 4 5 16 -2
13 -2 17 2 11 3 -7 10 -13 15 -13 6 0 8 4 5 8 -3 5 2 9 10 9 8 0 13 -6 10 -12
-2 -7 0 -18 6 -26 8 -11 9 -10 4 4 -3 9 -1 17 5 17 6 0 7 5 3 12 -4 7 -3 8 5
4 6 -4 17 -3 24 3 10 7 13 5 14 -11 3 -28 11 -34 26 -18 10 10 9 11 -2 5 -9
-5 -12 -3 -9 5 6 20 28 24 28 6 0 -8 4 -17 9 -20 5 -4 7 4 5 16 -2 13 -2 17 2
11 3 -7 10 -13 15 -13 6 0 8 4 5 8 -3 5 2 9 10 9 8 0 13 -6 10 -12 -2 -7 0
-18 6 -26 8 -11 9 -10 4 4 -3 9 -1 17 5 17 6 0 8 3 5 8 -2 4 11 8 30 8 19 0
34 -4 34 -9 0 -5 -7 -6 -16 -3 -10 4 -13 2 -8 -6 5 -8 2 -9 -9 -5 -9 3 -19 2
-22 -3 -3 -4 7 -7 22 -5 16 2 35 -2 43 -9 13 -9 13 -9 2 5 -10 13 -9 19 3 29
18 15 25 10 28 -19 1 -18 3 -19 17 -6 18 16 34 20 26 7 -2 -4 5 -8 17 -9 12 0
16 1 9 4 -6 3 -10 8 -7 13 3 5 -6 7 -20 5 -14 -1 -27 1 -30 4 -2 4 11 7 30 8
24 0 36 -5 44 -21 10 -19 11 -18 6 9 -4 24 -3 26 5 13 6 -9 17 -15 25 -12 8 4
12 11 8 18 -5 8 -3 8 8 0 8 -6 33 -10 57 -9 41 2 49 -6 43 -39 -1 -5 5 -4 14
4 12 10 13 16 3 29 -7 9 -8 13 -4 9 5 -4 16 -2 25 5 14 11 14 10 2 -5 -9 -13
-10 -18 -2 -18 7 0 10 -4 7 -8 -2 -4 5 -8 17 -9 12 0 16 1 9 4 -6 3 -9 10 -6
15 5 7 2 8 -6 3 -9 -5 -11 -4 -6 3 11 18 22 14 35 -10 11 -22 11 -21 6 7 -4
24 -3 26 5 13 6 -9 17 -15 25 -12 8 4 12 11 8 18 -5 8 -3 8 8 0 8 -6 33 -10
57 -9 41 2 49 -6 42 -40 -1 -5 7 -2 18 8 19 18 37 23 28 9 -3 -5 1 -9 9 -9 8
0 11 5 8 10 -4 6 2 8 14 5 12 -3 27 -1 34 4 11 8 10 8 -4 4 -11 -3 -16 -2 -12
4 10 17 48 12 42 -5 -4 -8 -1 -17 5 -21 6 -4 8 -3 5 2 -3 6 -2 16 4 24 7 12 9
11 10 -5 1 -11 1 -24 -1 -30 -1 -5 7 -2 18 8 19 17 37 23 28 9 -2 -4 5 -8 17
-9 12 0 16 1 9 4 -6 3 -10 8 -7 13 3 5 -6 7 -20 5 -14 -1 -27 1 -30 4 -2 4 11
7 30 8 24 0 36 -5 44 -21 10 -19 11 -18 6 9 -4 24 -3 26 5 13 6 -9 17 -15 25
-12 8 4 12 11 8 18 -5 8 -3 8 8 0 8 -6 33 -10 57 -9 41 2 49 -6 43 -39 -1 -5
5 -4 14 4 12 10 13 16 3 29 -7 9 -8 13 -4 9 5 -4 16 -2 25 5 14 11 14 10 2 -5
-9 -13 -10 -18 -2 -18 7 0 10 -4 7 -8 -2 -4 5 -8 17 -9 12 0 16 1 9 4 -6 3 -9
10 -6 15 5 7 2 8 -6 3 -9 -5 -11 -4 -6 3 11 18 22 14 35 -10 11 -22 11 -21 6
7 -4 24 -3 26 5 13 6 -9 17 -15 25 -12 8 4 12 11 8 18 -5 8 -3 8 8 0 8 -6 33
-10 57 -9 41 2 49 -6 42 -40 -1 -5 7 -2 18 8 19 18 37 23 28 9 -3 -5 1 -9 8
-9 7 0 13 6 13 13 0 7 -11 11 -24 9 -13 -1 -25 1 -28 5 -2 4 10 6 28 5 18 -1
37 2 42 6 7 5 11 0 12 -13 3 -28 11 -34 26 -18 10 10 9 11 -2 5 -9 -5 -12 -3
-9 5 6 20 28 24 28 6 0 -8 4 -17 9 -20 5 -4 7 4 5 16 -2 13 -2 17 2 11 3 -7
10 -13 15 -13 6 0 8 4 5 8 -3 5 2 9 10 9 8 0 13 -6 10 -12 -2 -7 0 -18 6 -26
8 -11 9 -10 4 4 -3 9 -1 17 5 17 6 0 7 5 3 12 -4 7 -3 8 5 4 6 -4 17 -3 24 3
10 7 13 5 14 -11 3 -28 11 -34 26 -18 10 10 9 11 -2 5 -9 -5 -12 -3 -9 5 6 20
28 24 28 6 0 -8 4 -17 9 -20 5 -4 7 4 5 16 -2 13 -2 17 2 11 3 -7 10 -13 15
-13 6 0 8 4 5 8 -3 5 2 9 10 9 8 0 13 -6 10 -12 -2 -7 0 -18 6 -26 8 -11 9
-10 4 4 -3 9 -1 17 5 17 6 0 7 5 3 12 -4 7 -3 8 5 4 6 -4 17 -3 24 3 10 7 13
5 14 -11 3 -28 11 -34 26 -18 10 10 9 11 -2 5 -9 -5 -12 -3 -9 5 6 20 28 24
28 6 0 -8 4 -17 9 -20 5 -4 7 4 5 16 -2 13 -2 17 2 11 3 -7 10 -13 15 -13 6 0
8 4 5 8 -3 5 2 9 10 9 8 0 13 -6 10 -12 -2 -7 0 -18 6 -26 8 -11 9 -10 4 4 -3
9 -1 17 5 17 6 0 7 5 3 12 -4 7 -3 8 5 4 6 -4 18 -3 25 3 9 8 13 7 13 -4 0 -8
-5 -15 -11 -15 -6 0 -3 -5 7 -11 14 -8 22 -8 30 1 9 8 8 10 -5 5 -24 -9 -23
-2 3 21 11 10 20 14 19 9 -6 -30 1 -36 18 -15 15 18 19 20 19 7 0 -10 -4 -17
-8 -17 -5 0 -6 -7 -3 -15 5 -11 2 -13 -10 -9 -9 3 -16 4 -16 1 0 -3 7 -7 15
-11 10 -4 19 4 28 24 11 26 13 27 27 12 13 -14 13 -15 -1 -10 -10 4 -15 0 -15
-13 0 -12 4 -15 12 -9 18 16 25 -2 9 -20 -14 -15 -14 -20 0 -46 9 -18 11 -32
5 -38 -6 -6 -5 -15 3 -25 8 -10 8 -12 1 -8 -12 7 -29 -21 -19 -31 3 -3 5 1 6
9 0 8 4 5 8 -6 5 -11 4 -25 -1 -32 -7 -9 -7 -13 2 -13 9 0 9 -4 2 -12 -5 -7
-8 -23 -6 -36 3 -17 0 -21 -8 -16 -10 6 -10 4 -2 -7 14 -18 25 -61 14 -54 -4
3 -10 -1 -13 -8 -3 -9 -29 -13 -91 -11 -48 0 -89 3 -92 6 -2 3 -6 19 -7 37 -1
17 -5 31 -9 31 -5 0 -8 6 -8 13 0 19 -69 86 -96 93 -13 3 -24 9 -24 13 0 3
-21 7 -46 9 -82 5 -156 -32 -197 -98 -11 -19 -26 -38 -31 -42 -7 -5 -6 -11 4
-18 10 -6 11 -10 3 -10 -7 0 -10 -7 -7 -15 8 -19 49 -17 -493 -19 -477 -1
-467 -2 -458 44 2 11 0 18 -4 15 -5 -3 -12 6 -15 20 -10 38 -80 101 -125 112
-55 14 -110 10 -156 -12 -35 -17 -83 -55 -70 -55 3 0 -4 -9 -15 -20 -12 -12
-19 -24 -16 -28 2 -4 -3 -13 -11 -21 -13 -12 -14 -11 -8 8 4 13 2 21 -5 21 -6
0 -8 5 -5 10 3 6 -1 10 -10 10 -9 0 -14 4 -10 9 3 5 1 12 -5 16 -6 4 -7 11 -4
17 5 7 2 8 -5 3 -7 -4 -22 1 -34 13 -21 18 -87 46 -87 36 0 -3 -8 0 -19 5 -10
6 -21 7 -25 4 -4 -4 -19 -9 -33 -11 -14 -2 -38 -9 -52 -17 -30 -15 -81 -63
-81 -76 0 -5 -8 -9 -17 -10 -11 0 -13 -3 -5 -6 17 -7 15 -23 -3 -23 -13 0 -16
5 -15 25 1 5 -63 68 -92 90 -15 11 -33 15 -98 20 -56 4 -137 -32 -165 -74 -10
-16 -23 -27 -27 -25 -4 3 -5 -2 -2 -10 3 -9 1 -16 -6 -16 -6 0 -8 -5 -4 -12 4
-7 3 -8 -5 -4 -6 4 -9 12 -6 17 4 5 1 9 -4 9 -6 0 -11 4 -11 9 0 10 -29 43
-66 74 -20 16 -46 26 -84 30 -8 1 -18 7 -22 12 -5 6 -8 6 -8 -2 0 -7 -11 -10
-27 -9 -44 5 -153 -63 -153 -96 0 -5 -5 -6 -12 -2 -8 5 -9 2 -5 -9 3 -10 2
-17 -3 -17 -5 0 -7 -8 -4 -17 4 -10 -3 -3 -15 15 -12 18 -21 36 -21 40 0 13
-45 49 -88 71 -93 47 -246 -8 -268 -96 -4 -13 -9 -21 -13 -19 -3 2 -7 -7 -7
-20 -3 -37 -23 -57 -42 -42 -9 7 -13 8 -9 2 4 -7 -17 -10 -66 -8 -40 1 -74 3
-77 3 -3 1 -6 17 -7 36 0 23 3 33 11 28 8 -5 8 -3 0 8 -16 21 -24 58 -13 65 6
3 5 12 -2 20 -7 9 -8 14 -3 13 23 -4 26 2 8 17 -19 15 -19 16 1 9 16 -5 18 -4
8 6 -7 7 -13 21 -13 32 0 12 4 16 13 11 10 -6 10 -4 0 7 -7 7 -13 22 -13 34 0
12 6 27 13 34 10 11 9 12 -2 6 -10 -6 -13 -4 -8 7 3 9 0 21 -6 27 -9 9 -8 11
6 5 13 -5 16 -2 10 12 -5 13 -3 15 7 9 10 -6 12 -4 6 11 -5 14 -4 16 4 8 8 -8
8 -19 0 -38z m2526 29 c-10 -8 -23 -12 -28 -9 -5 3 -15 1 -22 -5 -9 -8 -13 -7
-13 3 0 8 9 13 23 11 12 -1 28 2 36 6 21 14 25 10 4 -6z m-2466 -7 c0 -14 -18
-17 -28 -5 -8 10 -6 13 9 13 10 0 19 -4 19 -8z m3735 -78 c3 -5 1 -10 -4 -10
-6 0 -11 5 -11 10 0 6 2 10 4 10 3 0 8 -4 11 -10z m-3752 -600 c-2 -3 -14 -5
-26 -5 -15 0 -21 -6 -19 -18 4 -23 -5 -21 -19 4 -8 15 -8 19 0 15 6 -4 11 -3
11 2 0 5 13 9 29 8 16 0 27 -3 24 -6z m115 -2 c-2 -3 4 -13 12 -23 9 -11 10
-16 3 -11 -19 11 -16 -5 5 -21 9 -8 11 -11 4 -8 -8 4 3 -14 22 -40 20 -25 36
-51 36 -55 0 -5 8 -6 18 -3 14 6 15 4 4 -9 -10 -13 -10 -17 3 -22 9 -3 13 -2
10 4 -3 6 -1 10 4 10 6 0 11 -7 11 -16 0 -8 5 -12 10 -9 6 4 8 11 5 16 -3 5 1
6 9 3 9 -3 16 -10 16 -16 0 -5 -5 -6 -12 -2 -6 4 -3 -4 8 -18 10 -14 21 -24
23 -22 3 2 0 9 -6 15 -8 8 -8 15 0 24 10 11 16 9 34 -7 l22 -20 -6 23 c-5 23
-5 23 9 5 10 -13 17 -15 22 -8 4 7 4 16 1 22 -4 6 3 6 21 0 21 -8 25 -8 21 3
-3 8 3 14 15 14 17 2 18 0 6 -15 -12 -15 -11 -16 5 -3 9 7 16 20 15 29 -2 8 4
17 12 19 12 4 12 3 1 -5 -8 -6 -9 -12 -3 -16 11 -6 25 21 17 34 -2 4 4 15 15
25 11 10 20 15 20 10 0 -4 7 -2 15 5 8 7 15 10 15 6 0 -14 6 -22 37 -50 18
-15 30 -32 27 -37 -3 -5 3 -6 12 -2 13 5 15 3 9 -7 -6 -10 -3 -12 13 -8 12 4
25 2 28 -3 3 -5 10 -7 15 -4 5 4 9 2 9 -4 0 -11 19 -9 39 3 9 6 12 5 8 -1 -4
-6 0 -13 8 -17 8 -3 17 0 21 6 5 7 2 8 -6 3 -9 -5 -11 -4 -6 3 5 9 13 9 27 2
15 -9 21 -7 25 5 3 8 11 12 17 8 6 -4 8 0 4 11 -6 14 -3 15 13 6 11 -6 20 -7
19 -3 -3 20 2 27 12 13 8 -12 9 -10 4 8 -6 20 8 32 18 15 2 -5 3 -3 1 4 -1 6
0 14 4 18 4 4 7 12 7 18 0 7 5 12 10 12 6 0 16 4 24 9 9 6 12 5 8 -1 -4 -6 3
-19 14 -29 11 -10 17 -24 15 -31 -6 -14 9 -19 17 -5 2 4 2 2 1 -5 -3 -11 32
-29 49 -25 4 1 7 -4 7 -12 0 -9 7 -12 20 -9 14 4 20 0 20 -10 0 -11 7 -13 23
-9 12 3 25 10 28 15 4 5 10 0 13 -11 7 -20 8 -20 26 -5 10 9 16 21 13 26 -3 6
-1 7 5 3 5 -3 12 -3 15 1 2 5 2 3 1 -4 -2 -6 3 -14 11 -17 10 -3 12 0 8 11 -4
11 -2 14 5 9 7 -4 12 -2 12 4 0 6 7 18 15 26 14 14 19 11 16 -9 -1 -5 3 -6 8
-2 6 3 8 11 5 18 -7 19 42 68 60 61 9 -3 16 -14 16 -23 -1 -15 -2 -15 -13 1
-9 11 -18 14 -28 7 -11 -7 -11 -9 4 -9 9 0 17 -5 17 -11 0 -6 8 -8 19 -4 21 6
47 -25 33 -40 -4 -5 -1 -5 6 -1 7 4 19 2 27 -4 8 -7 15 -9 15 -5 0 5 8 1 18
-8 10 -10 21 -16 23 -15 2 2 -2 -2 -9 -8 -10 -9 -10 -13 3 -18 9 -3 14 -2 11
3 -3 4 6 13 20 20 14 6 23 7 19 2 -3 -6 4 -9 15 -8 11 1 20 4 20 7 0 3 14 6
32 7 18 0 34 6 36 12 3 8 10 8 25 -1 19 -10 20 -9 9 4 -10 13 -9 18 3 28 8 7
15 9 15 4 0 -5 4 -3 9 5 8 13 12 13 28 1 17 -14 17 -14 1 6 -17 19 -17 21 2
42 12 12 26 22 33 22 7 0 6 -4 -3 -10 -13 -9 -7 -14 13 -11 4 0 6 -5 5 -11 -2
-7 3 -12 10 -10 9 2 11 -4 7 -18 -5 -17 -3 -21 12 -18 11 2 18 -3 18 -14 0 -9
4 -20 9 -25 5 -4 6 -3 2 5 -4 7 -1 12 9 12 9 0 13 -4 10 -10 -4 -6 7 -10 24
-10 17 0 31 -5 31 -11 0 -5 -4 -8 -8 -5 -4 2 -14 0 -22 -6 -12 -8 -12 -9 3 -4
10 3 17 0 17 -7 0 -7 5 -4 11 6 5 9 15 17 21 17 6 0 5 -7 -3 -17 -12 -16 -12
-17 2 -6 9 7 19 10 23 6 4 -4 4 0 0 10 -5 13 -2 16 9 11 9 -3 13 -12 10 -20
-3 -8 0 -14 7 -14 6 0 9 4 6 9 -3 5 2 15 11 22 15 12 16 12 10 -5 -6 -14 -4
-16 5 -9 7 6 24 9 38 7 14 -1 19 0 12 2 -6 3 -9 11 -5 17 4 7 1 7 -9 -1 -13
-10 -18 -10 -24 -1 -4 7 -3 9 4 5 6 -3 13 -2 17 4 3 5 13 10 21 10 8 0 13 -4
10 -9 -7 -11 20 -8 31 3 4 4 2 6 -6 4 -7 -2 -16 3 -19 11 -2 8 0 11 6 7 5 -3
13 1 16 10 4 11 13 13 28 9 23 -7 23 -7 3 10 -19 15 -19 16 -1 11 15 -5 17 -4
7 8 -9 11 -9 16 1 23 7 4 13 15 13 23 0 10 9 14 30 13 21 -2 26 0 15 7 -8 5
-17 7 -21 4 -4 -2 -9 5 -12 16 -3 11 -1 18 4 14 5 -3 15 -2 21 2 7 5 32 9 55
10 42 1 55 -8 31 -22 -7 -5 -8 -3 -3 6 6 9 4 11 -4 5 -9 -5 -10 -10 -2 -18 8
-8 15 -5 27 11 16 23 39 25 60 7 7 -5 9 -14 6 -19 -3 -5 0 -6 6 -2 6 4 9 12 6
19 -3 10 12 13 63 13 66 -1 97 -11 85 -30 -3 -5 0 -6 6 -2 6 4 9 12 6 19 -3
10 12 13 63 13 66 -1 97 -11 85 -30 -3 -5 0 -6 6 -2 6 4 9 12 6 19 -3 10 12
13 63 13 66 -1 97 -11 85 -30 -3 -5 0 -6 6 -2 6 4 9 12 6 19 -3 9 14 13 66 13
61 0 71 -3 67 -17 -2 -8 2 -16 9 -16 7 0 13 3 12 6 -2 21 7 27 42 27 29 1 39
-3 36 -12 -2 -6 2 -20 9 -31 8 -10 15 -13 15 -8 0 6 -5 16 -10 21 -7 7 -6 11
4 11 8 0 13 -4 10 -8 -2 -4 0 -11 6 -14 8 -5 7 -12 -2 -23 -10 -12 -10 -14 0
-8 8 5 12 0 12 -14 0 -14 -4 -19 -12 -14 -8 4 -10 3 -5 -2 5 -5 13 -10 18 -10
5 -1 14 -2 20 -3 5 0 7 -5 4 -11 -3 -5 -1 -10 6 -10 9 0 9 -3 0 -14 -9 -11 -9
-16 0 -22 8 -4 9 -3 5 4 -12 20 19 13 57 -12 19 -13 38 -22 41 -18 4 3 13 -3
22 -14 8 -10 12 -13 8 -5 -5 11 -3 13 9 8 10 -4 17 -1 17 6 0 8 4 7 10 -3 9
-14 15 -13 82 21 10 5 20 5 24 -2 9 -15 44 19 37 37 -5 13 20 20 50 15 5 -1 6
3 2 8 -3 6 -12 8 -20 4 -11 -4 -13 -1 -9 11 3 9 10 14 14 11 4 -3 7 3 6 12 0
10 5 18 13 18 8 0 16 6 18 13 3 6 0 12 -7 12 -6 0 -8 -6 -4 -12 5 -10 3 -10
-7 0 -12 11 -12 14 1 22 8 5 11 10 6 10 -5 0 -4 6 2 13 6 7 35 12 74 12 57 -1
63 -3 61 -20 -2 -18 -2 -18 8 2 9 18 15 20 30 10 17 -10 17 -12 -3 -29 -12
-10 -17 -18 -12 -18 6 0 16 6 23 13 11 10 13 10 7 0 -4 -8 -2 -13 6 -13 8 0 6
-5 -4 -11 -10 -5 -18 -15 -18 -22 0 -8 3 -8 9 1 6 10 10 7 13 -12 3 -14 2 -23
-3 -21 -4 3 -10 1 -14 -5 -3 -5 -2 -10 3 -10 5 0 9 -25 10 -55 0 -30 3 -59 6
-64 4 -5 2 -13 -4 -16 -8 -5 -7 -12 2 -23 10 -12 10 -14 1 -8 -7 4 -13 5 -13
2 0 -2 -3 -13 -6 -23 -4 -13 -3 -15 4 -5 7 11 10 8 14 -12 3 -14 2 -25 -1 -24
-20 2 -22 -4 -5 -18 18 -15 18 -15 0 -10 -15 5 -16 4 -8 -6 6 -7 10 -38 10
-69 -1 -31 2 -62 7 -69 5 -8 4 -11 -2 -7 -6 4 -14 -1 -18 -11 -4 -10 -1 -21 9
-26 13 -9 12 -12 -2 -23 -16 -11 -16 -12 1 -13 10 0 15 -5 12 -10 -4 -6 -12
-7 -18 -4 -8 5 -8 3 1 -7 17 -18 15 -42 -3 -35 -8 3 -15 0 -15 -6 0 -7 -5 -6
-15 2 -8 7 -15 9 -15 4 0 -10 -73 -10 -89 1 -6 3 -11 0 -11 -7 0 -9 -3 -9 -10
2 -8 13 -10 13 -10 1 0 -30 -19 5 -22 39 -2 19 -10 40 -18 47 -8 7 -11 13 -7
13 11 0 -41 52 -74 74 -15 9 -39 19 -54 22 -15 3 -30 6 -34 6 -18 5 -111 -14
-111 -22 0 -6 -6 -10 -14 -10 -8 0 -21 -9 -29 -20 -8 -11 -16 -17 -20 -14 -6
7 -48 -82 -52 -111 -1 -11 -3 -22 -4 -25 -2 -10 -56 -5 -63 5 -5 7 -8 7 -8 0
0 -5 -16 -10 -35 -10 -19 0 -35 4 -35 8 0 5 -5 5 -11 1 -16 -10 -189 -11 -189
-1 0 5 -5 5 -12 1 -17 -10 -68 -11 -68 0 0 5 -7 3 -15 -4 -12 -10 -15 -10 -15
1 0 9 -3 10 -8 4 -8 -12 -162 -14 -162 -2 0 5 -5 5 -11 1 -16 -10 -189 -11
-189 -1 0 5 -6 5 -12 0 -17 -10 -38 -10 -65 -1 -13 4 -23 3 -23 -2 0 -5 -7 -7
-15 -4 -8 4 -15 10 -15 16 0 5 4 6 10 3 6 -3 7 1 4 9 -3 9 -10 16 -14 16 -5 0
-7 9 -5 20 2 11 0 18 -6 15 -8 -6 -13 8 -10 28 0 4 -3 7 -9 7 -5 0 -10 7 -10
15 0 8 -7 15 -15 15 -8 0 -15 5 -15 11 0 5 -21 19 -47 31 -82 36 -172 20 -232
-41 -16 -16 -32 -27 -37 -23 -4 4 -4 2 -1 -4 4 -6 0 -19 -7 -30 -8 -10 -12
-25 -9 -34 2 -8 -3 -1 -13 15 -9 17 -22 33 -28 37 -7 5 -6 8 3 8 9 0 5 7 -10
20 -13 11 -30 24 -37 30 -26 22 -88 42 -129 42 -74 -2 -148 -48 -182 -114 -16
-31 -31 -37 -31 -12 0 8 -6 22 -12 29 -7 8 -18 20 -24 27 -57 65 -171 88 -247
50 -28 -14 -92 -70 -92 -82 -1 -3 -6 -15 -13 -26 -6 -12 -8 -25 -4 -29 4 -5 2
-5 -5 -1 -7 4 -10 13 -6 21 3 8 0 15 -6 15 -6 0 -11 7 -11 16 0 9 -5 12 -12 8
-6 -4 -8 -3 -5 3 8 12 -26 44 -76 72 -24 13 -56 21 -86 21 -49 0 -114 -21
-126 -40 -4 -6 -12 -7 -18 -4 -7 4 -9 4 -5 0 3 -4 -7 -21 -23 -38 -16 -17 -27
-33 -25 -37 2 -3 -3 -15 -11 -26 -14 -17 -15 -18 -9 -2 3 10 0 25 -7 32 -30
35 -37 45 -30 45 4 0 -14 15 -41 33 -65 42 -145 47 -217 14 -27 -12 -49 -27
-49 -33 0 -6 -11 -21 -25 -34 -13 -12 -24 -25 -23 -29 3 -26 -4 -41 -14 -35
-9 5 -9 2 1 -9 12 -15 11 -17 -5 -17 -15 0 -16 -2 -5 -9 9 -6 4 -10 -18 -13
-17 -2 -31 -1 -31 4 0 5 -6 6 -12 1 -20 -12 -42 -9 -56 7 -10 13 -11 12 -5 -5
6 -18 5 -18 -10 -6 -14 11 -17 11 -18 0 0 -8 -4 -5 -9 6 -8 18 -9 18 -9 2 -1
-10 -5 -16 -10 -13 -12 8 -11 108 2 124 7 9 6 11 -7 6 -12 -5 -15 -2 -10 10 3
9 10 13 15 10 5 -3 5 5 0 18 -12 34 -12 100 1 115 8 11 7 12 -6 7 -12 -5 -15
-2 -10 10 3 9 10 13 15 10 5 -3 5 5 0 18 -12 34 -12 100 1 115 8 11 7 12 -6 7
-12 -5 -15 -2 -10 10 3 9 11 13 17 9 6 -4 7 -1 1 8 -4 8 -9 47 -10 87 -1 62 1
72 15 70 10 -2 16 3 15 13 -1 18 12 19 35 5 9 -6 12 -5 7 2 -3 6 6 14 21 20
29 9 95 10 91 0z m442 -63 c0 -2 -6 -5 -13 -8 -8 -3 -14 1 -14 8 0 7 6 11 14
8 7 -3 13 -6 13 -8z m2930 -89 c0 -2 -7 -9 -15 -16 -13 -11 -14 -10 -9 4 5 14
24 23 24 12z m265 -406 c3 -5 1 -10 -4 -10 -6 0 -11 5 -11 10 0 6 2 10 4 10 3
0 8 -4 11 -10z m-3773 -394 c7 4 8 2 4 -5 -4 -6 -12 -8 -18 -5 -7 4 -8 2 -4
-5 8 -12 19 -8 50 18 11 9 17 11 13 6 -8 -15 8 -38 27 -41 9 -1 14 2 10 7 -3
5 -10 7 -15 4 -5 -3 -7 0 -4 7 7 18 62 19 69 1 3 -8 10 -12 15 -9 5 3 7 -3 4
-14 -3 -11 -10 -17 -17 -13 -6 3 -7 2 -3 -3 5 -5 14 -9 19 -9 6 0 13 -5 15
-12 3 -8 -3 -11 -17 -8 -11 2 -18 0 -15 -6 4 -5 10 -7 15 -4 13 8 40 -24 40
-48 0 -14 3 -18 8 -10 5 8 13 9 22 3 10 -7 11 -10 3 -10 -7 0 -13 -4 -13 -10
0 -5 6 -7 14 -4 8 3 23 1 33 -6 16 -9 15 -10 -6 -4 -16 4 -21 3 -17 -5 4 -6
20 -10 36 -9 19 1 39 -6 57 -22 15 -14 22 -18 16 -10 -20 22 -16 29 15 25 15
-2 32 0 37 3 16 10 36 11 30 2 -3 -5 -1 -12 5 -15 6 -4 10 -3 9 2 -3 20 2 34
11 28 5 -3 7 -12 3 -20 -3 -8 0 -15 5 -15 6 0 9 9 7 21 -3 15 0 19 10 15 9 -3
12 1 10 15 -3 16 -1 17 15 9 16 -9 18 -7 15 10 -3 18 0 20 18 14 21 -6 21 -5
4 8 -18 13 -18 14 2 32 11 10 18 22 16 27 -3 4 0 11 6 15 7 4 9 3 5 -4 -3 -6
-2 -14 4 -17 15 -9 -8 -37 -24 -28 -7 4 -7 1 1 -7 10 -10 15 -11 27 -1 15 12
28 2 32 -26 3 -15 -12 -17 -21 -3 -3 6 -11 10 -18 10 -6 0 -2 -7 10 -15 12 -8
28 -12 37 -9 9 3 16 1 16 -5 0 -6 -5 -11 -12 -11 -6 0 -8 -3 -5 -6 4 -4 13 -2
21 5 11 9 15 8 20 -4 3 -9 2 -13 -3 -10 -5 3 -12 1 -15 -4 -7 -11 13 -9 33 3
10 7 12 3 7 -15 -3 -13 -3 -18 0 -11 3 6 10 12 15 12 6 0 7 -6 4 -12 -4 -7 1
-4 9 6 9 11 16 15 16 9 0 -5 16 -9 35 -8 30 2 35 -1 36 -19 0 -21 0 -21 9 2 5
12 16 22 23 22 8 0 20 6 26 14 6 7 22 12 36 10 14 -1 23 2 20 7 -3 5 7 22 24
38 16 16 27 32 23 37 -4 4 -1 4 6 0 10 -6 10 -11 1 -22 -6 -8 -9 -17 -6 -20
11 -11 26 32 16 47 -13 21 -11 31 5 17 8 -7 12 -16 9 -20 -2 -5 1 -8 7 -8 7 0
7 -7 -2 -22 -15 -29 -19 -50 -7 -42 5 3 7 9 4 14 -9 14 19 30 35 20 12 -8 11
-10 -5 -11 l-20 0 20 -8 c11 -5 25 -6 30 -3 6 3 4 -1 -2 -10 -16 -18 -5 -32
14 -17 9 9 13 8 13 0 0 -6 3 -10 8 -9 4 1 17 -1 30 -6 21 -7 27 -18 22 -41 -1
-5 10 1 25 15 l26 25 -5 -28 c-3 -16 -1 -25 5 -22 5 4 7 10 4 15 -3 4 3 14 12
21 14 12 15 11 9 -11 -5 -18 -5 -21 3 -11 8 12 12 12 25 2 13 -11 14 -9 10 13
-5 30 11 43 25 19 9 -16 10 -16 11 4 0 16 4 21 15 17 9 -4 18 1 21 11 4 9 18
29 31 43 13 14 21 32 18 40 -5 13 -2 12 17 0 13 -9 23 -22 23 -29 1 -8 7 -13
14 -11 7 1 10 -2 6 -8 -3 -5 -1 -10 5 -10 7 0 10 -7 7 -14 -4 -11 -1 -13 10
-9 12 5 14 3 8 -7 -5 -8 -3 -11 6 -8 8 3 23 0 34 -5 29 -16 44 -19 93 -20 23
0 42 -5 42 -9 0 -5 5 -6 10 -3 6 4 8 10 5 14 -2 5 12 7 33 4 26 -2 33 -1 22 6
-12 8 -12 13 -2 23 9 9 12 9 12 0 0 -7 5 -12 11 -12 5 0 7 5 4 10 -3 6 -1 10
5 10 6 0 8 5 5 10 -3 6 1 10 10 10 10 0 13 5 9 12 -4 7 -3 8 4 4 11 -6 17 12
13 37 0 4 4 7 9 7 10 0 7 -41 -5 -60 -14 -23 4 -8 20 16 9 15 11 23 4 19 -8
-6 -10 -4 -4 5 6 10 11 9 22 -5 17 -24 17 -35 -2 -35 -8 0 -15 -5 -15 -10 0
-7 7 -7 21 1 17 8 23 8 30 -2 4 -7 5 -18 1 -24 -3 -5 2 -4 11 4 12 9 17 10 17
2 0 -7 4 -9 10 -6 6 3 7 -1 4 -9 -3 -9 -1 -16 5 -16 6 0 11 5 11 11 0 5 5 7
10 4 6 -3 10 -11 10 -16 0 -6 -4 -7 -10 -4 -5 3 -10 1 -10 -5 0 -8 6 -9 18 -5
9 5 45 8 80 9 34 0 62 5 62 9 0 5 9 7 19 4 12 -3 27 3 37 14 9 10 13 19 9 19
-5 0 7 14 26 31 19 18 29 29 22 25 -8 -4 -8 0 0 19 7 13 14 20 16 14 2 -6 9 2
17 16 18 35 18 44 0 20 -14 -19 -14 -19 -13 5 2 21 7 25 35 26 27 1 32 -1 27
-17 -4 -11 -2 -19 5 -19 6 0 8 5 5 10 -9 14 8 12 25 -2 8 -7 6 -2 -5 11 l-20
24 22 -11 c16 -9 23 -9 26 1 4 7 6 6 6 -4 1 -20 28 -33 28 -13 0 7 -5 10 -10
7 -6 -3 -7 -1 -3 5 4 6 14 8 23 5 12 -5 14 -3 8 8 -7 12 -6 12 6 0 11 -10 11
-15 2 -18 -18 -6 -16 -20 2 -20 8 0 12 4 9 8 -6 10 6 17 42 23 27 5 28 4 10
-9 -11 -8 -16 -18 -12 -22 4 -4 11 -1 15 6 5 7 14 11 20 7 6 -4 9 -2 5 7 -3 8
1 14 10 14 8 0 13 -4 10 -9 -3 -4 -1 -8 5 -8 5 0 11 -6 14 -12 2 -7 3 -5 2 4
-3 21 10 26 63 22 31 -2 41 0 36 9 -4 7 -1 6 7 -2 11 -10 11 -15 2 -18 -18 -6
-16 -20 2 -20 8 0 12 4 9 8 -6 10 6 17 42 23 26 5 27 4 11 -8 -16 -12 -16 -14
-2 -20 9 -3 13 -2 10 4 -3 6 -2 10 4 10 5 0 11 -6 14 -12 2 -7 3 -4 1 8 -2 13
2 21 11 21 8 0 12 -4 9 -9 -6 -10 -1 -10 20 -2 9 3 13 11 9 18 -5 8 -3 8 8 0
8 -6 23 -10 34 -8 18 3 18 1 -3 -14 -21 -17 -21 -18 -3 -18 11 0 17 4 15 8 -3
4 0 8 5 8 6 0 11 -4 11 -10 0 -5 5 -10 12 -10 9 0 9 3 0 12 -16 16 -15 25 3
25 8 0 12 -4 9 -9 -6 -10 -1 -10 20 -2 9 3 13 11 9 17 -3 6 -1 7 6 3 9 -6 9
-11 1 -21 -8 -10 -8 -15 1 -21 8 -4 9 -3 5 4 -4 7 -3 12 3 12 5 0 11 -6 14
-12 2 -7 3 -4 1 8 -3 17 2 20 31 20 18 0 32 -2 30 -5 -5 -5 21 -31 31 -31 5 0
3 5 -4 12 -16 16 -15 25 3 25 8 0 12 -4 9 -9 -6 -10 -1 -10 20 -2 9 3 13 11
10 16 -4 6 3 5 15 -1 12 -7 27 -9 33 -5 7 4 8 3 4 -4 -9 -16 7 -15 22 0 9 9
12 9 12 0 0 -7 7 -12 16 -12 11 0 14 -6 9 -20 -4 -12 -2 -20 5 -20 8 0 10 -10
8 -25 -3 -14 -1 -28 5 -32 6 -4 7 -1 2 8 -8 12 -6 12 8 0 9 -7 15 -16 14 -20
-2 -3 7 -16 19 -28 15 -14 25 -17 28 -10 2 7 5 5 5 -4 1 -8 -5 -21 -11 -28
-11 -10 -10 -11 5 -6 9 4 17 11 17 16 0 6 6 4 14 -3 8 -7 11 -17 8 -22 -3 -5
1 -5 9 0 8 5 26 9 41 10 24 0 27 -3 23 -24 -3 -20 -2 -22 10 -12 8 7 13 16 10
20 -3 4 2 11 11 14 12 5 14 1 9 -16 -6 -18 -5 -19 8 -7 8 8 13 17 11 21 -2 4
0 9 6 13 5 3 11 -2 11 -12 1 -17 2 -17 6 0 2 9 11 17 19 17 8 0 14 6 14 13 0
7 8 3 17 -8 13 -17 15 -17 9 -2 -7 21 27 63 43 52 6 -3 11 -2 11 4 0 5 -6 12
-12 14 -8 3 -6 6 4 6 10 1 15 7 12 14 -2 7 3 21 12 32 8 11 12 14 8 6 -5 -10
-3 -12 5 -7 9 6 9 11 -1 24 -10 12 -10 16 0 19 6 3 10 9 7 13 -3 5 0 12 7 16
7 4 10 3 5 -1 -4 -5 0 -17 10 -27 12 -13 13 -18 3 -18 -7 0 -11 -3 -7 -6 11
-12 29 7 18 20 -7 8 -5 15 8 23 14 9 18 8 18 -3 0 -7 -4 -11 -9 -8 -4 3 -5 -2
-1 -11 4 -12 8 -13 13 -5 4 7 13 9 19 6 6 -4 9 -12 6 -17 -3 -5 1 -6 11 -2 15
5 15 7 0 15 -20 11 -21 25 -1 25 8 0 12 -4 9 -9 -6 -10 -1 -10 20 -2 9 3 14 9
11 13 -2 4 2 8 10 8 8 0 12 -4 9 -8 -2 -4 4 -12 13 -18 10 -5 15 -13 11 -17
-5 -4 -2 -14 5 -22 9 -12 9 -14 0 -8 -9 5 -11 -3 -7 -34 4 -27 1 -46 -8 -57
-8 -10 -8 -14 -1 -10 6 4 14 3 17 -2 3 -5 -2 -12 -11 -15 -14 -6 -14 -8 3 -22
17 -14 17 -15 1 -10 -13 4 -16 2 -10 -7 4 -6 9 -31 10 -55 1 -24 4 -50 7 -57
3 -8 1 -17 -5 -21 -6 -4 -5 -12 3 -22 10 -12 10 -14 1 -8 -7 4 -13 5 -13 2 0
-2 -3 -13 -6 -23 -5 -15 -4 -15 5 -3 8 12 11 8 11 -21 0 -19 -6 -41 -12 -48
-9 -10 -9 -12 -1 -7 6 3 14 2 17 -3 3 -5 -2 -12 -12 -16 -16 -7 -15 -8 3 -15
19 -7 19 -8 2 -15 -17 -7 -17 -8 0 -22 10 -8 13 -12 6 -9 -6 4 -14 2 -18 -4
-3 -5 -1 -10 4 -10 15 0 14 -63 -1 -79 -10 -11 -10 -13 0 -7 6 4 12 2 12 -3 0
-15 -13 -14 -29 2 -11 10 -13 9 -7 -1 6 -10 -11 -12 -79 -11 -85 1 -87 2 -82
25 2 14 0 21 -6 17 -6 -4 -8 2 -5 15 4 12 2 22 -3 22 -5 0 -9 7 -9 15 0 8 -4
15 -10 15 -5 0 -10 7 -10 16 0 8 -4 12 -10 9 -6 -3 -10 1 -10 9 0 9 -7 16 -15
16 -8 0 -15 4 -15 10 0 13 -89 38 -125 35 -16 -2 -38 -3 -47 -4 -9 -1 -23 -7
-30 -13 -7 -7 -19 -14 -26 -16 -7 -1 -27 -16 -45 -34 -17 -17 -25 -28 -17 -23
11 6 10 3 -2 -12 -10 -11 -18 -26 -18 -35 0 -8 -3 -18 -7 -22 -5 -4 -9 -12 -9
-17 -1 -5 -2 -13 -3 -18 -1 -6 -176 -10 -452 -11 -321 0 -448 3 -444 11 4 6 0
6 -12 -2 -16 -9 -24 -9 -39 0 -16 11 -16 12 -1 7 19 -6 18 -4 -30 89 -18 36
-79 85 -105 85 -10 0 -18 4 -18 8 0 15 -107 4 -141 -14 -19 -10 -37 -17 -41
-16 -5 1 -8 -2 -8 -7 0 -4 -13 -24 -30 -42 -27 -31 -35 -49 -31 -72 1 -5 -3
-6 -8 -2 -6 3 -7 13 -4 22 4 11 3 14 -6 9 -6 -4 -11 -4 -10 1 4 25 -32 74 -63
86 -10 3 -18 11 -18 16 0 17 -108 30 -163 18 -25 -5 -107 -65 -107 -77 0 -6
-4 -8 -10 -5 -6 3 -7 -1 -4 -9 4 -9 -1 -18 -10 -22 -9 -3 -13 -10 -10 -15 3
-5 2 -9 -3 -9 -4 0 -15 15 -22 32 -38 85 -142 129 -253 106 -12 -3 -28 -13
-52 -35 -8 -7 -16 -10 -19 -7 -3 3 -8 -4 -12 -15 -3 -12 -11 -21 -16 -21 -10
0 -34 -49 -30 -63 1 -5 -3 -6 -9 -2 -5 3 -10 15 -10 26 0 10 -5 19 -12 19 -6
0 -8 3 -5 6 3 4 -8 20 -26 35 -49 44 -57 50 -57 44 0 -3 -9 -1 -20 5 -63 34
-153 14 -218 -48 -48 -46 -52 -51 -52 -72 0 -5 -4 -10 -10 -10 -5 0 -10 9 -10
19 0 11 -8 26 -19 33 -10 7 -20 18 -21 23 -4 14 -61 55 -77 55 -7 0 -13 6 -14
13 0 9 -2 9 -6 -1 -2 -6 -9 -9 -15 -6 -14 9 -98 11 -98 3 0 -4 -10 -9 -23 -13
-30 -7 -109 -75 -101 -87 3 -5 0 -9 -5 -9 -6 0 -11 -12 -11 -26 0 -14 -4 -23
-9 -19 -6 3 -8 -5 -5 -19 l4 -25 -95 0 c-94 0 -96 0 -90 22 4 15 3 18 -3 9 -7
-11 -10 -9 -15 7 -2 11 0 22 7 25 7 3 6 8 -4 15 -14 10 -7 16 14 12 5 -1 5 4
-1 11 -6 7 -11 43 -11 80 0 38 -3 72 -7 77 -3 6 3 14 12 20 17 10 17 10 -1 11
-20 0 -20 0 0 15 18 13 18 14 1 15 -10 0 -15 5 -12 10 4 6 12 7 18 3 7 -4 6 0
-2 10 -7 9 -11 17 -8 17 3 0 1 16 -3 35 -5 20 -4 33 1 29 5 -3 9 -3 9 0 0 2 3
13 6 23 5 15 4 16 -5 3 -9 -12 -11 -6 -9 27 1 23 -1 45 -5 49 -4 4 -2 13 4 21
9 10 8 13 -2 13 -10 0 -10 3 -2 11 8 8 8 20 3 35 -6 14 -6 26 0 29 6 4 10 11
10 16 0 6 -5 7 -12 3 -7 -4 -8 -3 -4 5 4 6 12 9 17 6 5 -4 12 2 16 11 4 11 8
13 11 6 2 -7 9 -9 14 -6z m2118 -170 c0 -3 -4 -8 -10 -11 -5 -3 -10 -1 -10 4
0 6 5 11 10 11 6 0 10 -2 10 -4z m-2050 -792 c0 -8 -5 -12 -10 -9 -6 4 -8 11
-5 16 9 14 15 11 15 -7z m2240 0 c0 -8 -5 -12 -10 -9 -6 4 -8 11 -5 16 9 14
15 11 15 -7z m56 8 c-2 -4 -1 -14 5 -22 7 -12 9 -11 9 5 1 18 1 19 11 2 5 -9
7 -22 3 -29 -4 -7 -3 -8 5 -4 7 4 11 16 9 26 -2 11 2 18 7 17 6 -1 10 -9 9
-18 -1 -9 5 -16 12 -16 9 0 11 4 4 12 -5 7 -7 15 -3 18 3 4 12 -1 20 -11 13
-15 14 -15 9 0 -2 9 1 19 8 21 14 6 15 -20 1 -43 -8 -13 -6 -13 8 -2 9 8 21
11 26 7 7 -3 8 0 5 9 -3 9 -10 13 -15 10 -5 -3 -9 -3 -9 0 0 3 9 10 20 16 11
6 20 7 19 3 -3 -20 2 -34 11 -28 6 4 7 11 4 17 -4 6 -2 8 4 4 6 -3 13 -2 17 4
10 16 24 2 20 -19 -2 -10 3 -18 11 -18 9 0 11 4 4 12 -5 7 -7 15 -3 18 3 4 12
-1 20 -11 13 -15 14 -15 9 0 -2 9 1 19 8 21 14 6 15 -20 1 -43 -5 -10 -1 -9
12 3 21 18 42 19 56 2 5 -6 7 -4 4 5 -2 9 -15 15 -30 14 -14 0 -23 4 -20 9 3
4 11 6 19 3 8 -3 14 0 15 7 0 9 2 9 5 0 3 -7 12 -9 21 -6 11 4 14 2 9 -5 -4
-7 -2 -12 4 -12 6 0 8 -5 4 -12 -5 -7 -3 -8 5 -4 7 5 10 14 7 21 -2 7 2 16 10
19 8 3 13 2 10 -3 -3 -4 1 -17 9 -27 13 -18 14 -18 8 6 l-5 25 17 -23 c12 -17
20 -21 28 -13 18 18 31 12 16 -6 -12 -16 -12 -17 2 -6 9 7 19 9 24 5 4 -4 2 3
-6 15 -12 20 -15 21 -30 7 -15 -13 -17 -13 -22 0 -4 9 -1 18 5 22 7 4 8 3 4
-4 -9 -14 6 -16 20 -2 11 11 27 2 41 -24 9 -16 11 -17 16 -2 4 10 3 15 -3 11
-6 -3 -10 -2 -10 4 0 5 9 9 20 8 12 -1 18 -7 16 -14 -3 -7 1 -10 10 -6 8 3 14
-1 14 -8 1 -8 7 -3 15 11 8 14 14 21 15 17 0 -4 10 -3 21 4 12 6 19 7 16 2 -3
-5 -2 -15 4 -23 7 -12 9 -11 9 5 1 18 1 19 11 2 5 -9 7 -22 3 -29 -5 -7 -3 -8
5 -3 7 4 11 16 8 26 -3 10 0 22 5 26 6 3 8 1 5 -4 -4 -6 3 -13 14 -16 13 -4
18 -10 13 -18 -4 -8 -3 -10 4 -5 6 4 8 14 5 24 -5 14 -3 15 8 5 20 -19 33 -16
18 5 -13 15 -12 16 3 4 11 -9 15 -22 12 -40 -3 -15 -3 -24 1 -21 3 4 8 17 10
29 2 12 7 25 11 29 4 3 4 -2 1 -11 -3 -10 -1 -20 4 -24 7 -4 7 -10 0 -17 -12
-12 -15 -31 -3 -24 4 3 16 -7 26 -21 12 -16 14 -23 5 -18 -8 4 -6 1 5 -8 10
-8 15 -19 11 -25 -3 -7 0 -8 9 -5 10 4 16 1 17 -7 1 -25 7 -51 14 -57 3 -4 4
9 1 28 -3 19 -3 29 0 23 3 -7 12 -13 19 -13 8 0 17 -4 20 -10 4 -6 -1 -7 -12
-4 -15 5 -15 4 -3 -4 9 -7 18 -7 26 -1 8 6 16 5 25 -4 8 -7 23 -16 34 -20 18
-6 18 -6 3 6 -14 11 -8 13 42 13 49 -1 57 1 47 13 -10 12 -9 12 12 2 17 -10
26 -10 35 -1 8 8 7 10 -5 5 -10 -4 -20 -1 -25 6 -4 7 -3 10 3 6 6 -4 18 2 28
13 9 10 22 17 28 16 7 -2 9 -1 5 1 -15 9 -8 25 8 19 8 -3 13 -2 11 2 -9 15 12
52 27 46 8 -3 17 -1 20 4 3 5 -2 9 -11 8 -11 -1 -17 8 -18 26 -1 15 2 25 7 22
4 -3 8 1 8 8 0 8 5 6 11 -5 5 -9 7 -23 4 -30 -4 -6 1 -3 10 8 12 14 19 16 22
8 3 -7 9 -13 15 -13 6 0 3 8 -6 19 -16 18 -16 19 18 18 20 -1 38 -7 40 -14 3
-7 12 -10 21 -7 8 3 13 10 10 14 -3 5 -1 11 5 15 6 3 13 -1 16 -10 6 -14 9
-14 16 -3 8 10 9 10 5 -2 -2 -8 -11 -14 -19 -12 -9 1 -22 -5 -29 -15 -13 -15
-12 -15 7 -5 17 9 25 8 40 -4 18 -14 18 -15 -6 -10 -14 3 -19 3 -12 0 6 -3 9
-11 6 -16 -4 -7 -2 -8 4 -4 8 5 12 -1 12 -14 0 -12 -4 -19 -8 -16 -5 3 -9 -1
-9 -9 0 -8 4 -12 8 -9 4 2 10 0 13 -5 3 -5 -2 -12 -11 -15 -14 -6 -14 -8 3
-22 17 -14 17 -15 1 -10 -13 4 -16 2 -10 -7 14 -22 14 -49 1 -41 -10 6 -10 5
-1 -7 6 -8 12 -33 11 -56 0 -23 3 -46 6 -51 3 -6 2 -14 -4 -17 -8 -5 -7 -12 2
-23 10 -12 10 -14 1 -8 -7 4 -13 5 -13 2 0 -2 -3 -13 -6 -23 -5 -15 -4 -15 5
-3 8 12 11 8 11 -21 0 -19 -6 -41 -12 -48 -9 -10 -9 -12 -1 -7 6 3 14 2 17 -3
3 -5 -2 -12 -11 -15 -14 -6 -14 -8 3 -22 17 -14 17 -15 1 -10 -13 4 -16 2 -10
-7 4 -6 9 -31 10 -55 1 -24 4 -50 7 -57 3 -10 0 -12 -11 -8 -9 4 -14 2 -10 -3
3 -6 -28 -10 -79 -10 -46 0 -84 4 -84 9 0 4 -4 5 -10 2 -9 -6 -15 16 -11 39 1
4 -4 14 -10 22 -6 8 -8 14 -5 14 8 0 -7 19 -44 57 -67 68 -183 80 -262 25 -24
-16 -52 -46 -63 -65 -10 -20 -21 -34 -24 -32 -4 2 -5 -14 -5 -34 l2 -37 -462
0 c-314 0 -463 3 -468 10 -5 7 -8 5 -8 -4 0 -13 -2 -13 -9 -1 -5 8 -8 24 -6
37 1 13 -1 22 -4 19 -4 -2 -13 11 -20 28 -42 98 -187 144 -283 90 -33 -19 -68
-49 -68 -58 0 -3 -9 -15 -19 -27 -11 -11 -17 -27 -14 -36 5 -10 2 -13 -6 -8
-7 5 -10 14 -7 21 7 20 -89 111 -126 120 -59 14 -112 13 -148 -3 -19 -8 -37
-16 -40 -16 -11 -2 -50 -47 -50 -57 0 -5 -4 -8 -9 -4 -5 3 -12 1 -16 -5 -3 -5
-1 -10 6 -10 19 0 1 -13 -22 -17 -13 -2 -19 2 -17 9 7 19 -75 92 -115 105 -74
22 -162 3 -217 -49 -13 -13 -28 -22 -33 -20 -5 1 -6 -2 -3 -7 3 -5 0 -20 -7
-33 -10 -20 -15 -22 -24 -13 -7 8 -8 17 -2 24 5 6 7 9 4 7 -3 -2 -25 15 -48
37 -50 47 -76 58 -142 62 -57 3 -108 -15 -146 -51 -14 -13 -28 -22 -32 -19 -4
3 -5 2 -2 -2 3 -3 -4 -20 -15 -38 -11 -18 -18 -35 -15 -38 3 -4 3 -6 0 -4 -3
2 -15 23 -28 48 -33 63 -107 106 -179 105 -65 -2 -117 -24 -155 -66 -15 -18
-28 -35 -29 -38 0 -4 -4 -16 -8 -27 -5 -11 -10 -27 -14 -35 -3 -8 -4 -21 -3
-28 2 -14 -20 -12 -31 3 -5 6 -8 6 -8 -1 0 -14 -100 -14 -100 1 0 6 -4 5 -8
-2 -9 -15 -38 -11 -55 7 -9 10 -9 11 0 6 7 -4 13 -3 13 1 0 5 -6 15 -13 22
-10 11 -9 13 5 8 15 -5 16 -4 5 13 -9 16 -9 24 0 40 11 16 10 18 -2 14 -11 -5
-13 -2 -9 10 3 9 10 13 15 10 5 -3 5 5 0 18 -12 34 -12 100 1 115 8 11 7 12
-6 7 -12 -5 -15 -2 -10 10 3 9 10 13 15 10 5 -3 5 5 0 18 -12 34 -12 100 1
115 8 11 7 12 -6 7 -12 -5 -15 -2 -10 10 3 9 10 13 15 10 5 -3 5 6 -1 21 -5
14 -8 43 -6 65 3 28 1 38 -7 33 -7 -4 -4 6 7 21 15 24 16 28 3 23 -13 -5 -15
-2 -7 17 5 13 6 27 3 30 -4 3 -1 6 6 6 8 0 10 -7 6 -20 -4 -11 -2 -20 4 -20 6
0 11 7 11 15 0 9 6 12 17 8 10 -4 14 -2 10 4 -4 6 1 10 11 9 19 -1 42 -18 36
-27 -2 -3 3 -6 11 -6 8 0 14 3 13 6 -2 26 3 31 21 21 26 -13 34 -13 25 3 -6 9
-5 9 8 0 8 -7 17 -11 19 -8 3 2 3 -11 1 -30 -3 -24 0 -35 9 -35 7 0 10 -3 7
-6 -3 -3 4 -16 16 -29 11 -13 27 -30 34 -39 7 -9 17 -14 22 -11 4 3 11 -2 14
-11 3 -8 10 -12 16 -9 5 3 10 1 10 -4 0 -6 3 -10 8 -10 4 1 9 1 12 -1 3 -1 15
-3 28 -6 17 -3 21 -1 16 8 -6 10 -5 10 8 1 8 -7 17 -10 21 -7 3 3 16 0 29 -7
21 -11 22 -11 10 4 -11 13 -11 15 5 11 10 -3 28 4 40 15 13 12 25 17 28 11 8
-13 25 -13 25 1 0 5 -4 7 -10 4 -5 -3 -10 -1 -10 4 0 6 5 11 11 11 5 0 7 6 3
13 -5 9 -4 9 6 0 16 -15 40 1 40 26 -1 11 -5 8 -15 -9 -9 -16 -14 -20 -15 -9
0 8 11 25 23 38 21 19 25 20 37 6 7 -8 9 -15 4 -15 -5 0 14 -21 41 -46 28 -25
45 -43 39 -40 -7 3 -18 -2 -25 -12 -11 -14 -11 -15 1 -5 9 8 19 9 31 2 15 -8
18 -6 13 8 -4 13 -3 14 3 5 6 -7 16 -12 23 -10 8 2 15 -3 16 -9 1 -7 3 -16 4
-20 1 -5 2 -12 1 -16 -1 -5 3 -6 9 -2 8 5 8 11 0 20 -8 9 -8 15 0 20 5 3 10 1
10 -6 0 -9 4 -9 15 1 8 6 19 9 24 6 5 -4 12 -2 16 4 4 6 10 8 15 5 5 -3 11 -1
15 5 4 6 10 8 15 5 4 -3 13 2 20 10 7 8 16 12 21 9 5 -3 9 0 9 6 0 6 4 9 9 6
5 -3 14 1 21 9 11 13 10 15 -6 10 -12 -4 -11 -1 4 6 13 7 21 18 18 26 -3 8 -1
11 4 8 9 -5 14 6 12 26 -1 3 5 6 12 6 7 0 13 -6 13 -13 0 -7 -3 -11 -7 -9 -4
2 -12 -8 -19 -23 -10 -25 -10 -25 3 -8 14 17 16 17 31 2 9 -9 21 -16 26 -16 5
0 9 -9 9 -21 0 -11 5 -17 10 -14 6 3 10 1 10 -5 0 -6 5 -8 10 -5 6 3 10 -1 10
-9 0 -9 5 -16 11 -16 5 0 7 5 3 11 -5 8 -1 8 13 0 11 -6 24 -7 28 -3 5 4 5 1
1 -6 -6 -10 1 -12 34 -7 33 5 40 3 34 -7 -6 -10 -4 -10 9 1 14 11 20 11 34 0
15 -12 16 -12 10 4 -7 19 9 24 16 5 3 -7 6 -2 6 11 1 19 4 21 15 12 9 -8 16
-8 20 -2 4 5 15 8 26 6 12 -2 17 1 14 10 -3 7 0 16 6 20 8 5 7 11 -2 23 -8 9
-8 13 -2 9 12 -7 28 19 19 32 -2 4 2 8 10 8 8 0 15 -3 15 -6 0 -3 11 -19 25
-35 14 -16 25 -33 25 -38 0 -4 6 -8 14 -8 22 0 65 -50 59 -68 -4 -10 3 -6 15
8 12 14 21 21 22 16 0 -5 7 -2 17 5 15 13 15 12 3 -11 -7 -14 -9 -22 -5 -18 5
4 15 2 23 -5 11 -8 14 -8 9 0 -4 6 -4 13 0 16 5 2 2 2 -5 0 -7 -1 -10 2 -7 7
9 15 48 13 39 -2 -4 -7 -4 -10 1 -6 4 4 13 0 20 -9 9 -13 14 -13 20 -3 5 9 4
11 -3 6 -7 -4 -12 -5 -12 -2 0 2 -3 12 -7 21 -5 15 -3 16 15 6 17 -9 21 -9 17
1 -5 14 61 62 74 54 4 -3 7 5 6 19 -2 18 1 22 13 18 8 -4 13 -2 10 3 -4 5 0
18 8 29 8 10 14 13 14 7 0 -20 -5 -27 -15 -24 -5 2 -2 -5 8 -16 9 -10 14 -21
11 -24 -3 -3 0 -9 7 -14 7 -4 10 -3 5 4 -3 5 -1 12 6 14 6 2 29 -13 50 -34 39
-38 56 -49 42 -26 -4 6 3 5 15 -4 12 -8 35 -14 52 -12 16 2 28 0 25 -5 -3 -5
1 -12 10 -15 11 -4 15 -2 11 8 -3 8 1 17 9 20 9 3 12 1 9 -4 -10 -16 11 -11
25 5 7 9 19 14 27 11 7 -3 13 1 13 9 0 19 17 28 26 14 4 -8 3 -9 -4 -5 -8 5
-10 1 -5 -10 4 -11 8 -13 11 -6 2 7 9 9 15 5 7 -4 6 1 -2 11 -13 15 -13 19 0
26 8 5 14 14 14 20 0 6 6 14 13 19 7 4 14 17 15 29 0 11 4 20 7 18 6 -3 49 41
44 46 -1 2 6 4 16 4 24 0 26 -14 5 -22 -8 -4 -15 -11 -15 -17 0 -5 9 -2 21 9
16 15 22 16 29 5 6 -10 9 -9 15 8 3 12 10 19 14 17 4 -3 13 -1 21 5 18 11 23
11 16 1z m584 -8 c0 -8 -5 -12 -10 -9 -6 4 -8 11 -5 16 9 14 15 11 15 -7z
m-720 -3 c0 -5 -7 -14 -15 -21 -10 -9 -15 -9 -15 -1 0 6 5 11 11 11 5 0 7 5 4
10 -3 6 -1 10 4 10 6 0 11 -4 11 -9z m-410 -101 c0 -5 -2 -10 -4 -10 -3 0 -8
5 -11 10 -3 6 -1 10 4 10 6 0 11 -4 11 -10z m-483 -41 c-6 -10 -13 -16 -16
-14 -2 3 -10 0 -18 -7 -11 -8 -12 -7 -7 6 3 9 13 16 21 16 8 0 12 4 9 8 -3 5
1 9 8 9 11 0 12 -4 3 -18z m187 -45 c3 -8 2 -12 -4 -9 -6 3 -10 10 -10 16 0
14 7 11 14 -7z m-134 -414 c0 -5 -5 -10 -11 -10 -5 0 -7 5 -4 10 3 6 8 10 11
10 2 0 4 -4 4 -10z m-1382 -355 c-2 -1 -13 -7 -25 -13 -16 -9 -22 -9 -26 2 -4
10 0 12 14 9 11 -3 19 0 19 6 0 7 5 9 11 6 6 -4 9 -8 7 -10z m25 -2 c-6 -15
-4 -16 9 -5 20 16 48 5 41 -16 -4 -14 -3 -15 5 -2 7 8 7 19 2 25 -6 7 -3 11 9
11 10 0 18 -7 17 -16 -1 -8 6 -14 15 -12 17 2 22 -29 7 -39 -5 -3 -2 -9 7 -12
9 -4 13 -3 10 3 -3 6 -2 10 3 10 5 0 14 -18 21 -40 7 -22 16 -38 21 -35 6 4
10 -3 10 -15 0 -13 -4 -19 -12 -14 -7 5 -8 3 -3 -6 6 -10 11 -9 22 5 13 19 17
13 14 -25 0 -10 1 -11 5 -2 3 6 15 12 25 12 11 0 18 -4 15 -9 -3 -5 1 -12 10
-15 10 -4 13 -2 9 7 -4 6 1 3 9 -7 14 -18 21 -15 17 7 -1 5 4 5 11 1 7 -4 26
-7 43 -6 26 1 27 0 9 -8 -12 -4 -24 -17 -28 -27 -5 -16 -5 -16 6 -2 7 8 21 18
31 22 9 3 17 11 17 17 0 6 5 8 10 5 6 -3 10 -1 10 4 0 6 5 11 11 11 6 0 9 -7
5 -15 -4 -12 -2 -13 13 -6 10 6 21 7 25 4 3 -3 6 -1 6 6 0 8 -7 11 -15 7 -8
-3 -15 -1 -15 4 0 6 6 10 14 10 8 0 16 7 20 15 3 8 10 15 16 15 6 0 9 -4 6 -8
-3 -5 1 -9 9 -9 13 0 13 3 0 17 -14 16 -14 18 0 24 9 3 13 10 10 16 -4 7 3 7
22 0 l28 -10 -25 21 c-14 11 -20 18 -13 15 6 -3 14 0 16 6 4 9 6 7 6 -3 1 -9
15 -31 32 -48 17 -18 29 -35 26 -37 -2 -2 -12 5 -22 16 -20 22 -35 26 -35 9 0
-5 4 -8 9 -4 6 3 14 -2 19 -10 5 -9 19 -18 33 -19 31 -4 79 -27 79 -37 0 -5
-16 1 -35 12 -19 12 -35 18 -35 15 0 -3 14 -13 30 -21 17 -9 28 -20 25 -25 -3
-5 -1 -12 5 -15 6 -4 9 -1 8 7 -2 9 7 12 27 11 21 -2 26 0 15 7 -8 5 -18 6
-24 3 -5 -3 -6 -1 -2 5 4 7 15 8 30 2 15 -5 32 -4 47 4 14 7 30 11 36 9 6 -2
14 1 18 6 4 8 13 7 28 -1 19 -10 20 -9 9 4 -10 13 -9 17 5 23 10 5 22 7 27 6
5 -1 6 5 3 12 -5 15 10 37 25 37 4 0 8 -5 8 -11 0 -5 -4 -8 -9 -4 -5 3 -12 1
-16 -4 -3 -6 4 -8 17 -5 13 3 28 6 35 6 7 1 10 5 7 10 -3 5 -8 6 -12 4 -4 -2
-12 2 -19 9 -10 10 -9 16 3 26 12 10 13 9 8 -7 -4 -10 -3 -16 1 -12 11 10 38
-29 30 -42 -3 -6 3 -10 13 -10 25 0 46 -25 36 -42 -5 -10 -4 -11 7 0 19 17 34
15 19 -3 -7 -9 -10 -18 -6 -22 3 -3 6 -1 6 5 0 7 4 12 10 12 5 0 7 -8 4 -17
-3 -10 1 -7 9 6 12 20 15 21 20 7 8 -19 33 -21 40 -3 3 6 6 2 6 -10 1 -12 5
-24 10 -27 5 -4 7 2 4 13 -3 11 2 21 13 25 14 5 15 4 5 -8 -10 -11 -7 -14 13
-12 20 1 22 4 13 15 -9 12 -9 13 1 7 6 -4 12 -3 12 1 0 5 9 9 19 10 11 1 19
-4 17 -10 -1 -7 -1 -9 1 -4 3 4 8 5 13 2 4 -3 6 5 3 17 -4 19 -3 20 6 8 9 -13
11 -13 11 3 0 10 7 20 15 23 8 4 12 11 8 17 -3 6 -1 7 5 3 7 -4 12 -2 12 3 0
22 2 26 16 42 8 9 13 18 12 20 -2 2 5 -5 14 -16 11 -13 14 -25 8 -36 -6 -11
-5 -16 5 -16 8 0 11 5 8 10 -4 6 -1 7 6 3 7 -5 10 -14 7 -22 -3 -8 0 -11 10
-7 17 6 19 -13 2 -21 -7 -3 0 -3 15 -1 23 3 26 1 17 -10 -9 -11 -7 -12 11 -8
14 4 20 2 16 -4 -4 -6 0 -13 8 -16 8 -4 13 -1 11 6 -1 7 -1 9 1 5 3 -5 14 -8
24 -8 13 0 18 -4 13 -12 -5 -10 -4 -10 6 -1 7 6 19 9 28 6 11 -5 13 -2 7 8 -6
11 -5 12 6 2 16 -16 33 -17 23 -1 -4 7 -3 8 4 4 7 -4 12 -2 12 4 0 7 7 5 16
-4 8 -9 21 -16 27 -15 9 0 8 2 0 6 -7 2 -13 9 -13 15 0 6 7 7 16 4 8 -3 12 -2
9 3 -3 5 -1 12 5 16 5 3 10 0 11 -7 0 -7 5 -3 11 10 6 13 17 21 24 18 8 -3 16
-1 19 5 4 5 3 9 -2 8 -22 -4 -22 3 3 26 15 14 21 25 14 25 -7 0 -10 3 -7 6 4
4 13 2 20 -4 8 -7 18 -8 22 -4 5 4 5 2 2 -5 -4 -6 1 -19 10 -29 17 -17 17 -18
1 -11 -10 4 -18 2 -18 -4 0 -7 11 -9 25 -7 13 3 22 2 20 -3 -3 -4 3 -10 14
-14 11 -3 25 -13 33 -22 7 -9 8 -14 3 -11 -6 4 -17 3 -25 -2 -11 -7 -8 -9 10
-8 14 1 28 7 32 13 5 6 8 5 8 -3 0 -7 4 -11 9 -7 5 3 17 -2 25 -11 15 -15 21
-11 16 11 -1 6 4 4 11 -2 10 -10 9 -17 -7 -35 l-19 -22 26 20 c15 10 25 24 22
30 -2 6 6 10 19 9 13 -1 29 2 35 7 7 6 21 7 30 4 10 -4 14 -4 10 0 -7 7 33 41
44 37 4 -1 6 5 5 15 0 9 5 16 12 14 8 -1 11 2 8 7 -4 5 -2 12 4 16 5 3 10 -2
11 -12 0 -11 3 -13 6 -5 3 7 0 19 -6 26 -6 7 -7 16 -3 20 4 4 8 12 8 17 1 5 3
12 4 17 1 4 3 13 4 21 0 8 7 15 14 17 7 1 8 0 2 -3 -5 -2 -10 -9 -10 -14 0 -6
4 -8 9 -4 6 3 14 -3 20 -12 6 -10 11 -12 11 -5 0 6 7 12 15 12 8 0 15 5 15 10
0 7 -6 7 -20 0 -11 -6 -20 -7 -20 -2 0 13 39 22 46 11 3 -5 10 -9 15 -9 6 0 8
3 5 8 -2 4 17 7 44 7 30 0 46 -4 43 -11 -2 -6 4 -17 14 -25 16 -12 17 -12 6 2
-13 16 -8 29 9 29 5 0 6 -6 2 -12 -4 -7 -3 -10 1 -5 5 4 17 -1 28 -10 20 -18
20 -18 4 7 -15 24 -15 25 8 25 16 0 20 -3 14 -11 -6 -7 -4 -16 5 -23 12 -10
17 -8 26 11 10 21 10 21 -3 5 -9 -10 -18 -14 -21 -9 -7 11 18 24 50 26 12 1
20 -3 17 -10 -2 -6 4 -17 14 -25 16 -12 17 -12 6 2 -13 16 -8 29 9 29 5 0 6
-6 2 -12 -4 -7 -3 -10 1 -5 5 4 17 -1 28 -10 20 -18 20 -18 4 7 -15 24 -15 25
8 25 15 0 20 -4 14 -11 -9 -11 7 -34 25 -34 5 0 2 6 -7 13 -16 11 -16 13 2 24
13 8 22 9 26 3 3 -6 11 -10 16 -10 6 0 8 3 5 8 -2 4 17 7 43 7 43 0 47 -2 45
-23 -1 -12 2 -20 7 -16 5 3 7 9 4 14 -3 4 3 14 12 21 9 8 14 9 10 3 -4 -7 0
-15 9 -18 8 -3 13 -2 10 3 -3 5 12 11 35 13 22 2 43 0 45 -4 3 -4 10 -8 15 -8
6 0 8 3 5 8 -2 4 17 7 44 7 30 0 46 -4 43 -11 -2 -6 4 -17 14 -25 16 -13 17
-12 5 3 -9 11 -10 18 -2 23 5 3 14 -5 20 -19 5 -14 12 -26 15 -26 2 0 0 12 -5
26 -15 38 -13 39 16 10 27 -26 54 -35 54 -16 0 5 -7 6 -17 3 -12 -5 -14 -3 -8
7 5 8 4 11 -3 6 -6 -3 -13 -2 -16 3 -4 5 -2 12 3 15 5 4 13 1 16 -5 4 -5 13
-8 20 -5 9 3 12 -4 11 -25 -1 -16 2 -29 7 -29 4 0 5 -5 2 -10 -3 -6 -1 -10 5
-10 6 0 8 -5 5 -10 -3 -5 -1 -10 5 -10 6 0 8 -4 5 -10 -3 -5 -1 -10 5 -10 6 0
8 -5 4 -12 -4 -6 -3 -8 3 -5 6 4 17 0 24 -9 10 -13 10 -17 -2 -26 -11 -8 -11
-9 3 -5 19 6 42 -15 30 -28 -4 -5 -1 -5 6 -1 10 6 10 11 1 22 -6 8 -9 17 -5
21 3 3 6 1 6 -5 0 -7 7 -12 15 -12 18 0 19 -12 3 -28 -8 -8 -9 -12 -1 -12 6 0
13 5 15 12 2 6 14 12 25 13 12 1 19 -3 17 -10 -3 -7 3 -18 12 -26 12 -9 15
-10 10 -1 -8 13 19 13 42 -2 8 -5 12 -3 10 6 -2 7 3 12 10 11 6 -2 12 2 12 7
0 12 -13 13 -24 3 -10 -11 -36 -12 -36 -2 0 5 10 10 23 11 12 0 27 2 32 3 6 2
16 3 23 4 7 0 11 5 8 9 -3 5 11 14 30 21 20 7 32 17 28 23 -5 7 -1 9 9 5 11
-4 14 -2 11 8 -3 7 4 23 15 34 14 14 16 22 8 25 -7 4 -1 4 11 2 23 -5 24 -4 5
16 -10 12 -12 18 -4 13 11 -6 13 -4 8 7 -9 26 4 29 25 5 11 -12 17 -17 14 -10
-4 6 -3 13 1 16 5 2 3 3 -3 1 -6 -1 -11 4 -11 12 0 9 5 10 15 5 9 -5 28 -5 45
0 24 7 27 6 17 -6 -17 -20 -1 -19 22 1 12 12 21 14 30 7 7 -6 21 -9 31 -8 9 2
15 -1 11 -6 -3 -5 -10 -7 -15 -4 -5 4 -9 1 -9 -5 0 -7 -6 -10 -13 -7 -6 2 -11
10 -10 16 4 14 -14 15 -22 1 -3 -5 -1 -10 5 -10 6 0 9 -4 5 -9 -3 -6 8 -8 26
-6 28 4 29 3 17 -12 -7 -9 -8 -14 -2 -10 8 4 11 -12 12 -53 0 -32 3 -63 6 -69
4 -5 2 -13 -4 -16 -8 -5 -7 -12 2 -23 10 -12 10 -14 1 -8 -7 4 -13 5 -13 2 0
-2 -3 -13 -6 -23 -5 -15 -4 -15 5 -3 8 12 11 8 11 -21 0 -19 -6 -41 -12 -48
-7 -7 -8 -12 -3 -11 22 5 29 -1 15 -10 -12 -8 -13 -11 -1 -19 8 -5 9 -11 3
-15 -6 -3 -13 -2 -17 4 -3 5 -11 10 -17 10 -5 0 0 -9 13 -19 24 -19 -2 -19
-1856 -19 -1425 0 -1883 2 -1894 11 -10 8 -13 8 -8 1 4 -7 -3 -11 -18 -11 -21
0 -23 2 -13 14 10 12 9 18 -5 28 -14 10 -15 14 -5 18 11 4 10 7 -1 15 -9 7
-10 11 -2 17 9 5 9 10 1 20 -8 10 -8 15 1 21 8 5 9 3 4 -6 -5 -9 -4 -11 4 -6
7 5 9 12 3 19 -14 20 -15 97 0 114 8 10 8 14 1 10 -6 -4 -14 -3 -18 3 -3 5 -2
10 3 10 6 0 12 7 15 14 4 11 1 13 -11 10 -14 -5 -13 -3 2 10 11 9 15 16 9 16
-6 0 -13 9 -16 20 -3 11 -1 18 4 15 5 -3 18 -1 30 6 17 9 24 8 31 -2 8 -11 9
-10 5 2 -3 9 0 22 6 28 15 15 17 14 10 -6z m117 3 c0 -2 -7 -7 -16 -10 -8 -3
-12 -2 -9 4 6 10 25 14 25 6z m3201 -209 c-10 -9 -11 -8 -5 6 3 10 9 15 12 12
3 -3 0 -11 -7 -18z m-3391 -157 c0 -5 -2 -10 -4 -10 -3 0 -8 5 -11 10 -3 6 -1
10 4 10 6 0 11 -4 11 -10z m119 -456 c1 -1 0 -8 -4 -15 -6 -8 -10 -7 -17 5 -5
9 -13 14 -19 11 -5 -4 -9 -1 -9 5 0 10 36 6 49 -6z m480 0 c1 -1 0 -8 -4 -15
-6 -8 -10 -7 -17 5 -5 9 -13 14 -19 11 -5 -4 -9 -1 -9 5 0 10 36 6 49 -6z
m480 0 c1 -1 0 -8 -4 -15 -6 -8 -10 -7 -17 5 -5 9 -13 14 -19 11 -5 -4 -9 -1
-9 5 0 10 36 6 49 -6z m480 0 c1 -1 0 -8 -4 -15 -6 -8 -10 -7 -17 5 -5 9 -13
14 -19 11 -5 -4 -9 -1 -9 5 0 10 36 6 49 -6z m480 0 c1 -1 0 -8 -4 -15 -6 -8
-10 -7 -17 5 -5 9 -13 14 -19 11 -5 -4 -9 -1 -9 5 0 10 36 6 49 -6z m480 0 c1
-1 0 -8 -4 -15 -6 -8 -10 -7 -17 5 -5 9 -13 14 -19 11 -5 -4 -9 -1 -9 5 0 10
36 6 49 -6z m480 0 c1 -1 0 -8 -4 -15 -6 -8 -10 -7 -17 5 -5 9 -13 14 -19 11
-5 -4 -9 -1 -9 5 0 10 36 6 49 -6z m480 0 c1 -1 0 -8 -4 -15 -6 -8 -10 -7 -17
5 -5 9 -13 14 -19 11 -5 -4 -9 -1 -9 5 0 10 36 6 49 -6z m480 0 c1 -1 0 -8 -4
-15 -6 -8 -10 -7 -17 5 -5 9 -13 14 -19 11 -5 -4 -9 -1 -9 5 0 10 36 6 49 -6z"/>
<path d="M940 4445 c-9 -10 -9 -15 -1 -15 6 0 11 5 11 11 0 8 6 7 18 -2 15
-13 16 -12 3 4 -16 21 -16 21 -31 2z"/>
<path d="M987 4443 c3 -7 8 -11 11 -9 3 3 11 1 19 -6 11 -8 12 -7 8 5 -4 8
-15 17 -25 20 -13 3 -17 1 -13 -10z"/>
<path d="M1180 4445 c-9 -10 -9 -15 -1 -15 6 0 11 5 11 11 0 8 6 7 18 -2 15
-13 16 -12 3 4 -16 21 -16 21 -31 2z"/>
<path d="M1228 4442 c4 -11 7 -12 10 -3 3 8 8 7 19 -6 14 -17 14 -17 5 1 -12
24 -43 31 -34 8z"/>
<path d="M1420 4445 c-9 -10 -9 -15 -1 -15 6 0 11 5 11 11 0 8 6 7 18 -2 15
-13 16 -12 3 4 -16 21 -16 21 -31 2z"/>
<path d="M1467 4443 c3 -7 8 -11 11 -9 3 3 11 1 19 -6 11 -8 12 -7 8 5 -4 8
-15 17 -25 20 -13 3 -17 1 -13 -10z"/>
<path d="M1660 4445 c-9 -10 -9 -15 -1 -15 6 0 11 5 11 11 0 8 6 7 18 -2 15
-13 16 -12 3 4 -16 21 -16 21 -31 2z"/>
<path d="M1708 4442 c4 -11 7 -12 10 -3 3 8 8 7 19 -6 14 -17 14 -17 5 1 -12
24 -43 31 -34 8z"/>
<path d="M1900 4445 c-7 -9 -8 -15 -2 -15 5 0 12 7 16 15 3 8 4 15 2 15 -2 0
-9 -7 -16 -15z"/>
<path d="M2780 4445 c-9 -10 -9 -15 -1 -15 6 0 11 5 11 11 0 8 6 7 18 -2 15
-13 16 -12 3 4 -16 21 -16 21 -31 2z"/>
<path d="M2828 4442 c4 -11 7 -12 10 -3 3 8 8 7 19 -6 14 -17 14 -17 5 1 -12
24 -43 31 -34 8z"/>
<path d="M3020 4445 c-9 -10 -9 -15 -1 -15 6 0 11 5 11 11 0 8 6 7 18 -2 15
-13 16 -12 3 4 -16 21 -16 21 -31 2z"/>
<path d="M3067 4443 c3 -7 8 -11 11 -9 3 3 11 1 19 -6 11 -8 12 -7 8 5 -4 8
-15 17 -25 20 -13 3 -17 1 -13 -10z"/>
<path d="M3420 4445 c-9 -10 -9 -15 -1 -15 6 0 11 5 11 11 0 8 6 7 18 -2 15
-13 16 -12 3 4 -16 21 -16 21 -31 2z"/>
<path d="M3468 4442 c4 -11 7 -12 10 -3 3 8 8 7 19 -6 14 -17 14 -17 5 1 -12
24 -43 31 -34 8z"/>
<path d="M3660 4445 c-9 -10 -9 -15 -1 -15 6 0 11 5 11 11 0 8 6 7 18 -2 15
-13 16 -12 3 4 -16 21 -16 21 -31 2z"/>
<path d="M3707 4443 c3 -7 8 -11 11 -9 3 3 11 1 19 -6 11 -8 12 -7 8 5 -4 8
-15 17 -25 20 -13 3 -17 1 -13 -10z"/>
<path d="M3230 4426 c0 -2 7 -7 16 -10 8 -3 12 -2 9 4 -6 10 -25 14 -25 6z"/>
<path d="M769 3763 c-13 -16 -12 -17 3 -5 10 8 19 9 22 3 3 -5 3 -11 -1 -14
-5 -2 -1 -2 7 1 8 2 20 5 26 5 15 1 13 24 -2 24 -7 0 -11 -4 -8 -9 7 -12 -10
-10 -22 2 -8 8 -15 5 -25 -7z"/>
<path d="M2935 3771 c-3 -5 -2 -12 3 -15 5 -3 9 1 9 9 0 17 -3 19 -12 6z"/>
<path d="M2965 3769 c-4 -6 -4 -13 -1 -16 3 -4 6 -1 6 6 0 7 5 9 10 6 6 -3 10
-1 10 4 0 14 -17 14 -25 0z"/>
<path d="M3055 3770 c3 -5 8 -10 11 -10 2 0 4 5 4 10 0 6 -5 10 -11 10 -5 0
-7 -4 -4 -10z"/>
<path d="M3133 3758 c0 -13 1 -17 4 -10 4 10 8 10 21 0 14 -12 14 -11 1 10 -8
12 -16 22 -19 22 -3 0 -6 -10 -7 -22z"/>
<path d="M3215 3770 c3 -5 8 -10 11 -10 2 0 4 5 4 10 0 6 -5 10 -11 10 -5 0
-7 -4 -4 -10z"/>
<path d="M3293 3758 c0 -13 1 -17 4 -10 4 10 8 10 21 0 14 -12 14 -11 1 10 -8
12 -16 22 -19 22 -3 0 -6 -10 -7 -22z"/>
<path d="M3375 3770 c3 -5 8 -10 11 -10 2 0 4 5 4 10 0 6 -5 10 -11 10 -5 0
-7 -4 -4 -10z"/>
<path d="M3453 3758 c0 -13 1 -17 4 -10 4 10 8 10 21 0 14 -12 14 -11 1 10 -8
12 -16 22 -19 22 -3 0 -6 -10 -7 -22z"/>
<path d="M3535 3770 c3 -5 8 -10 11 -10 2 0 4 5 4 10 0 6 -5 10 -11 10 -5 0
-7 -4 -4 -10z"/>
<path d="M3613 3758 c0 -13 1 -17 4 -10 4 10 8 10 21 0 14 -12 14 -11 1 10 -8
12 -16 22 -19 22 -3 0 -6 -10 -7 -22z"/>
<path d="M3695 3770 c3 -5 8 -10 11 -10 2 0 4 5 4 10 0 6 -5 10 -11 10 -5 0
-7 -4 -4 -10z"/>
<path d="M3765 3769 c-4 -6 -4 -13 -1 -16 3 -4 6 -1 6 6 0 7 5 9 10 6 6 -3 10
-1 10 4 0 14 -17 14 -25 0z"/>
<path d="M3805 3769 c-4 -6 -5 -12 -2 -15 2 -3 7 2 10 11 7 17 1 20 -8 4z"/>
<path d="M4284 3769 c-6 -10 35 -33 44 -25 3 3 0 6 -7 6 -7 0 -11 6 -8 13 5
14 -20 19 -29 6z"/>
<path d="M4336 3771 c-4 -5 -2 -12 3 -15 5 -4 12 -2 15 3 4 5 2 12 -3 15 -5 4
-12 2 -15 -3z"/>
<path d="M4373 3758 c0 -13 1 -17 4 -10 3 6 9 10 14 7 5 -4 6 1 3 9 -9 23 -20
19 -21 -6z"/>
<path d="M3190 3749 c0 -5 5 -7 10 -4 6 3 10 8 10 11 0 2 -4 4 -10 4 -5 0 -10
-5 -10 -11z"/>
<path d="M3350 3749 c0 -5 5 -7 10 -4 6 3 10 8 10 11 0 2 -4 4 -10 4 -5 0 -10
-5 -10 -11z"/>
<path d="M3510 3749 c0 -5 5 -7 10 -4 6 3 10 8 10 11 0 2 -4 4 -10 4 -5 0 -10
-5 -10 -11z"/>
<path d="M3670 3749 c0 -5 5 -7 10 -4 6 3 10 8 10 11 0 2 -4 4 -10 4 -5 0 -10
-5 -10 -11z"/>
<path d="M1266 3682 c-2 -4 11 -22 30 -39 19 -16 34 -26 34 -22 0 5 -13 18
-30 30 -16 12 -27 26 -24 31 3 4 3 8 0 8 -3 0 -7 -4 -10 -8z"/>
<path d="M1654 3654 c0 -18 4 -30 9 -27 4 2 5 13 2 22 -3 12 0 18 10 18 8 0
15 -4 15 -9 0 -4 5 -8 12 -8 6 0 4 7 -5 18 -26 29 -43 23 -43 -14z"/>
<path d="M2469 3672 c-13 -16 -13 -16 5 -2 18 14 19 13 13 -2 -4 -11 -2 -17 6
-15 7 1 11 -4 9 -11 -1 -8 2 -11 8 -7 7 4 7 12 0 25 -15 28 -26 32 -41 12z"/>
<path d="M1230 3665 c-11 -13 -10 -14 4 -9 9 3 16 10 16 15 0 13 -6 11 -20 -6z"/>
<path d="M868 3663 c6 -2 10 -8 8 -12 -3 -4 1 -8 9 -8 11 0 12 4 4 14 -6 7
-17 13 -23 12 -7 0 -6 -2 2 -6z"/>
<path d="M2045 3650 c-3 -6 1 -7 9 -4 18 7 21 14 7 14 -6 0 -13 -4 -16 -10z"/>
<path d="M1241 3641 c-10 -7 -7 -9 12 -8 14 1 23 5 20 10 -6 9 -15 9 -32 -2z"/>
<path d="M2055 3631 c-3 -5 -2 -12 3 -15 5 -3 9 1 9 9 0 17 -3 19 -12 6z"/>
<path d="M1290 3620 c0 -5 5 -10 11 -10 5 0 7 5 4 10 -3 6 -8 10 -11 10 -2 0
-4 -4 -4 -10z"/>
<path d="M2115 3620 c3 -5 8 -10 11 -10 2 0 4 5 4 10 0 6 -5 10 -11 10 -5 0
-7 -4 -4 -10z"/>
<path d="M2414 3619 c-4 -7 -3 -9 4 -5 5 3 13 0 15 -6 4 -9 6 -10 6 -1 1 17
-16 25 -25 12z"/>
<path d="M4233 3615 c0 -8 4 -12 9 -9 5 3 6 10 3 15 -9 13 -12 11 -12 -6z"/>
<path d="M3926 3607 c3 -10 9 -15 12 -12 3 3 0 11 -7 18 -10 9 -11 8 -5 -6z"/>
<path d="M1753 3585 c0 -7 6 -11 14 -8 7 3 13 6 13 8 0 2 -6 5 -13 8 -8 3 -14
-1 -14 -8z"/>
<path d="M2180 3585 c-9 -10 -9 -15 -1 -15 6 0 11 5 11 11 0 5 5 7 12 3 7 -4
8 -3 4 4 -9 15 -11 15 -26 -3z"/>
<path d="M3956 3592 c-3 -5 1 -9 9 -9 8 0 12 4 9 9 -3 4 -7 8 -9 8 -2 0 -6 -4
-9 -8z"/>
<path d="M1390 3581 c0 -5 7 -12 16 -15 14 -5 15 -4 4 9 -14 17 -20 19 -20 6z"/>
<path d="M1575 3579 c-4 -6 -5 -12 -2 -15 2 -3 7 2 10 11 7 17 1 20 -8 4z"/>
<path d="M4150 3580 c0 -5 5 -10 10 -10 6 0 10 5 10 10 0 6 -4 10 -10 10 -5 0
-10 -4 -10 -10z"/>
<path d="M2320 3570 c-9 -6 -10 -10 -3 -10 6 0 15 5 18 10 8 12 4 12 -15 0z"/>
<path d="M2354 3564 c-18 -14 -18 -15 4 -4 12 6 22 13 22 15 0 8 -5 6 -26 -11z"/>
<path d="M4000 3573 c0 -6 8 -17 18 -24 16 -13 16 -13 2 6 -8 11 -16 22 -17
24 -2 2 -3 0 -3 -6z"/>
<path d="M4104 3568 c-4 -5 -3 -12 0 -15 3 -4 6 -1 6 6 0 7 4 10 9 6 5 -3 12
-2 15 3 3 5 -2 9 -10 9 -8 0 -17 -4 -20 -9z"/>
<path d="M1146 3558 c3 -5 10 -6 15 -3 13 9 11 12 -6 12 -8 0 -12 -4 -9 -9z"/>
<path d="M1466 3555 c4 -8 11 -15 16 -15 6 0 5 6 -2 15 -7 8 -14 15 -16 15 -2
0 -1 -7 2 -15z"/>
<path d="M1935 3559 c-4 -6 -4 -13 -1 -16 3 -4 6 -1 6 6 0 8 6 11 16 7 8 -3
12 -2 9 4 -8 13 -22 13 -30 -1z"/>
<path d="M2250 3560 c0 -5 5 -10 11 -10 5 0 7 5 4 10 -3 6 -8 10 -11 10 -2 0
-4 -4 -4 -10z"/>
<path d="M2293 3551 c0 -11 5 -18 9 -15 4 3 5 11 1 19 -7 21 -12 19 -10 -4z"/>
<path d="M3970 3559 c0 -5 5 -7 10 -4 6 3 10 8 10 11 0 2 -4 4 -10 4 -5 0 -10
-5 -10 -11z"/>
<path d="M4054 3559 c-3 -6 -3 -13 0 -16 3 -4 6 -1 6 5 0 6 7 9 15 6 8 -4 15
-4 15 -1 0 11 -30 16 -36 6z"/>
<path d="M1113 3545 c0 -8 4 -12 9 -9 5 3 6 10 3 15 -9 13 -12 11 -12 -6z"/>
<path d="M1510 3549 c0 -5 5 -7 10 -4 6 3 10 8 10 11 0 2 -4 4 -10 4 -5 0 -10
-5 -10 -11z"/>
<path d="M797 2803 c5 -12 7 -12 14 -1 7 10 9 10 9 1 0 -7 5 -13 12 -13 9 0 9
3 0 12 -18 18 -42 19 -35 1z"/>
<path d="M2937 2803 c3 -7 6 -13 8 -13 2 0 5 6 8 13 3 8 -1 14 -8 14 -7 0 -11
-6 -8 -14z"/>
<path d="M3234 2805 c3 -23 12 -26 13 -5 1 11 -2 20 -7 20 -4 0 -7 -7 -6 -15z"/>
<path d="M3280 2805 c-7 -9 -10 -18 -6 -22 3 -3 6 -1 6 6 0 7 4 10 8 7 5 -3 9
1 9 9 0 19 -2 19 -17 0z"/>
<path d="M3461 2806 c-9 -11 -9 -16 1 -22 7 -4 10 -4 6 1 -4 4 -3 14 3 22 6 7
9 13 6 13 -2 0 -10 -6 -16 -14z"/>
<path d="M3630 2816 c0 -2 7 -7 16 -10 8 -3 12 -2 9 4 -6 10 -25 14 -25 6z"/>
<path d="M3745 2811 c-7 -12 12 -24 25 -16 11 7 4 25 -10 25 -5 0 -11 -4 -15
-9z"/>
<path d="M4420 2805 c-11 -13 -11 -16 1 -13 8 2 13 -3 12 -9 -4 -18 14 -16 20
1 9 23 -18 39 -33 21z"/>
<path d="M663 2792 c-8 -13 -7 -21 5 -31 12 -12 13 -11 7 7 -5 18 -3 21 12 16
10 -3 14 -2 8 3 -5 4 -12 11 -15 15 -3 4 -11 -1 -17 -10z"/>
<path d="M3815 2800 c-8 -13 9 -20 24 -11 10 6 9 10 -3 14 -8 3 -18 2 -21 -3z"/>
<path d="M733 2785 c0 -8 4 -12 9 -9 5 3 6 10 3 15 -9 13 -12 11 -12 -6z"/>
<path d="M3559 2773 c-13 -16 -12 -17 4 -4 16 13 21 21 13 21 -2 0 -10 -8 -17
-17z"/>
<path d="M3719 2773 c-13 -16 -12 -17 4 -4 16 13 21 21 13 21 -2 0 -10 -8 -17
-17z"/>
<path d="M2073 2728 c-13 -22 -12 -37 3 -31 8 3 14 14 14 24 0 22 -6 24 -17 7z"/>
<path d="M2871 2691 c-19 -14 -21 -20 -10 -26 8 -5 11 -5 7 0 -4 4 3 16 15 26
29 24 19 24 -12 0z"/>
<path d="M2036 2682 c-3 -5 1 -9 9 -9 8 0 12 4 9 9 -3 4 -7 8 -9 8 -2 0 -6 -4
-9 -8z"/>
<path d="M2095 2680 c3 -5 8 -10 11 -10 2 0 4 5 4 10 0 6 -5 10 -11 10 -5 0
-7 -4 -4 -10z"/>
<path d="M3906 2667 c3 -10 9 -15 12 -12 3 3 0 11 -7 18 -10 9 -11 8 -5 -6z"/>
<path d="M1628 2663 c7 -3 16 -2 19 1 4 3 -2 6 -13 5 -11 0 -14 -3 -6 -6z"/>
<path d="M2445 2660 c-3 -6 1 -7 9 -4 18 7 21 14 7 14 -6 0 -13 -4 -16 -10z"/>
<path d="M4215 2660 c-3 -6 1 -7 9 -4 18 7 21 14 7 14 -6 0 -13 -4 -16 -10z"/>
<path d="M1556 2641 c-4 -5 -2 -12 3 -15 5 -4 12 -2 15 3 4 5 2 12 -3 15 -5 4
-12 2 -15 -3z"/>
<path d="M2165 2640 c-3 -5 -1 -10 4 -10 6 0 11 5 11 10 0 6 -2 10 -4 10 -3 0
-8 -4 -11 -10z"/>
<path d="M1774 2628 c-4 -6 -3 -8 4 -4 6 3 18 -1 26 -10 9 -8 16 -11 16 -5 0
17 -38 33 -46 19z"/>
<path d="M2193 2625 c0 -8 4 -12 9 -9 4 3 8 -2 8 -10 0 -9 4 -16 10 -16 5 0 7
7 3 16 -5 14 -3 15 18 4 18 -9 21 -9 13 -1 -6 7 -18 13 -25 14 -8 2 -19 6 -25
9 -6 4 -11 1 -11 -7z"/>
<path d="M976 2622 c-3 -4 4 -9 15 -9 23 -2 25 3 4 10 -8 4 -16 3 -19 -1z"/>
<path d="M1091 2616 c-9 -11 -9 -16 0 -22 8 -5 9 -3 4 6 -6 10 -4 12 8 7 11
-4 14 -2 10 9 -6 17 -8 17 -22 0z"/>
<path d="M1056 2605 c4 -8 8 -15 10 -15 2 0 4 7 4 15 0 8 -4 15 -10 15 -5 0
-7 -7 -4 -15z"/>
<path d="M1407 2607 c-3 -8 1 -14 8 -14 7 0 11 6 8 14 -3 7 -6 13 -8 13 -2 0
-5 -6 -8 -13z"/>
<path d="M1456 2605 c4 -8 8 -15 10 -15 2 0 4 7 4 15 0 8 -4 15 -10 15 -5 0
-7 -7 -4 -15z"/>
<path d="M1510 2615 c0 -7 30 -13 34 -7 3 4 -4 9 -15 9 -10 1 -19 0 -19 -2z"/>
<path d="M2273 2598 c-1 -10 2 -20 8 -23 5 -3 6 0 3 8 -8 21 14 31 34 15 15
-12 16 -11 4 4 -17 22 -48 19 -49 -4z"/>
<path d="M2370 2611 c0 -7 -5 -9 -12 -5 -7 5 -8 3 -3 -5 5 -9 10 -10 18 -2 6
6 8 14 4 18 -4 3 -7 1 -7 -6z"/>
<path d="M2663 2613 c-18 -7 -16 -20 2 -20 8 0 11 5 8 10 -4 6 1 8 11 4 10 -4
15 -3 11 3 -7 11 -13 11 -32 3z"/>
<path d="M2713 2607 c0 -8 6 -14 14 -14 9 0 10 4 2 14 -6 7 -12 13 -14 13 -1
0 -2 -6 -2 -13z"/>
<path d="M2740 2617 c0 -2 6 -10 14 -16 11 -9 16 -9 22 1 4 7 4 10 -1 6 -4 -4
-14 -3 -22 3 -7 6 -13 9 -13 6z"/>
<path d="M4010 2615 c0 -2 6 -8 13 -14 10 -8 14 -7 14 2 0 8 -6 14 -14 14 -7
0 -13 -1 -13 -2z"/>
<path d="M3263 1853 c-3 -10 -8 -22 -11 -27 -3 -5 0 -6 5 -3 11 7 25 47 17 47
-3 0 -7 -8 -11 -17z"/>
<path d="M3037 1853 c-11 -11 -8 -20 7 -20 8 0 12 6 9 14 -6 15 -7 15 -16 6z"/>
<path d="M3677 1853 c-11 -11 -8 -20 7 -20 8 0 12 6 9 14 -6 15 -7 15 -16 6z"/>
<path d="M4362 1846 c7 -8 15 -12 17 -11 5 6 -10 25 -20 25 -5 0 -4 -6 3 -14z"/>
<path d="M790 1840 c0 -6 7 -10 15 -10 8 0 15 2 15 4 0 2 -7 6 -15 10 -8 3
-15 1 -15 -4z"/>
<path d="M1256 1781 c-4 -5 -2 -12 4 -16 6 -4 7 -12 4 -18 -4 -7 -3 -9 1 -4 5
4 20 -3 34 -15 23 -20 22 -19 -2 9 -16 17 -28 34 -27 38 3 12 -8 17 -14 6z"/>
<path d="M2075 1769 c-5 -8 -5 -11 0 -7 11 10 48 -39 39 -53 -4 -8 -3 -9 4 -5
16 10 15 17 -12 50 -18 21 -25 25 -31 15z"/>
<path d="M2070 1740 c0 -5 5 -10 11 -10 5 0 7 5 4 10 -3 6 -8 10 -11 10 -2 0
-4 -4 -4 -10z"/>
<path d="M2470 1740 c0 -5 5 -10 10 -10 6 0 10 5 10 10 0 6 -4 10 -10 10 -5 0
-10 -4 -10 -10z"/>
<path d="M1670 1730 c0 -5 5 -10 10 -10 6 0 10 5 10 10 0 6 -4 10 -10 10 -5 0
-10 -4 -10 -10z"/>
<path d="M2875 1729 c-4 -6 -5 -12 -2 -15 2 -3 7 2 10 11 7 17 1 20 -8 4z"/>
<path d="M3873 1725 c0 -8 4 -12 9 -9 5 3 6 10 3 15 -9 13 -12 11 -12 -6z"/>
<path d="M1639 1713 c-13 -16 -12 -17 4 -4 9 7 17 15 17 17 0 8 -8 3 -21 -13z"/>
<path d="M2530 1720 c0 -5 5 -10 11 -10 5 0 7 5 4 10 -3 6 -8 10 -11 10 -2 0
-4 -4 -4 -10z"/>
<path d="M2425 1709 c-4 -6 -5 -12 -2 -15 2 -3 7 2 10 11 7 17 1 20 -8 4z"/>
<path d="M1330 1700 c0 -5 5 -10 11 -10 5 0 7 5 4 10 -3 6 -8 10 -11 10 -2 0
-4 -4 -4 -10z"/>
<path d="M2445 1700 c-3 -6 1 -7 9 -4 18 7 21 14 7 14 -6 0 -13 -4 -16 -10z"/>
<path d="M4206 1698 c3 -5 10 -6 15 -3 13 9 11 12 -6 12 -8 0 -12 -4 -9 -9z"/>
<path d="M2163 1685 c0 -8 4 -12 9 -9 5 3 6 10 3 15 -9 13 -12 11 -12 -6z"/>
<path d="M2395 1690 c-3 -5 -1 -10 4 -10 6 0 11 5 11 10 0 6 -2 10 -4 10 -3 0
-8 -4 -11 -10z"/>
<path d="M2550 1689 c0 -5 5 -7 10 -4 6 3 10 8 10 11 0 2 -4 4 -10 4 -5 0 -10
-5 -10 -11z"/>
<path d="M946 1677 c3 -10 9 -15 12 -12 3 3 0 11 -7 18 -10 9 -11 8 -5 -6z"/>
<path d="M1160 1680 c-9 -6 -10 -10 -3 -10 6 0 15 5 18 10 8 12 4 12 -15 0z"/>
<path d="M1565 1680 c-3 -6 1 -7 9 -4 18 7 21 14 7 14 -6 0 -13 -4 -16 -10z"/>
<path d="M1600 1686 c0 -2 7 -7 16 -10 8 -3 12 -2 9 4 -6 10 -25 14 -25 6z"/>
<path d="M2576 1673 c-6 -14 -5 -15 5 -6 7 7 10 15 7 18 -3 3 -9 -2 -12 -12z"/>
<path d="M1535 1670 c-4 -6 -10 -8 -15 -5 -4 3 -10 -2 -13 -10 -5 -12 -2 -12
18 -3 14 6 25 15 25 20 0 11 -7 10 -15 -2z"/>
<path d="M2775 1669 c-4 -6 -5 -12 -2 -15 2 -3 7 2 10 11 7 17 1 20 -8 4z"/>
<path d="M990 1663 c0 -6 8 -17 18 -24 16 -13 16 -13 2 6 -8 11 -16 22 -17 24
-2 2 -3 0 -3 -6z"/>
<path d="M1580 1660 c-9 -6 -10 -10 -3 -10 6 0 15 5 18 10 8 12 4 12 -15 0z"/>
<path d="M2390 1660 c0 -5 5 -10 11 -10 5 0 7 5 4 10 -3 6 -8 10 -11 10 -2 0
-4 -4 -4 -10z"/>
<path d="M4004 1650 c0 -13 4 -16 10 -10 7 7 7 13 0 20 -6 6 -10 3 -10 -10z"/>
<path d="M1025 1650 c3 -4 14 -10 25 -13 11 -3 18 -2 15 3 -3 4 -14 10 -25 13
-11 3 -18 2 -15 -3z"/>
<path d="M1087 1640 c10 -11 19 -20 21 -20 1 0 -2 9 -8 20 -6 11 -15 20 -20
20 -6 0 -2 -9 7 -20z"/>
<path d="M1469 1643 c-13 -16 -12 -17 4 -4 16 13 21 21 13 21 -2 0 -10 -8 -17
-17z"/>
<path d="M1795 1650 c3 -5 8 -10 11 -10 2 0 4 5 4 10 0 6 -5 10 -11 10 -5 0
-7 -4 -4 -10z"/>
<path d="M1853 1643 c-10 -10 -14 -15 -8 -11 7 4 14 5 17 2 3 -2 8 2 11 11 8
19 4 19 -20 -2z"/>
<path d="M2663 1646 c0 -7 6 -13 14 -13 7 0 13 4 13 8 0 4 -6 9 -13 12 -8 3
-14 0 -14 -7z"/>
<path d="M1910 1639 c0 -5 5 -7 10 -4 6 3 10 8 10 11 0 2 -4 4 -10 4 -5 0 -10
-5 -10 -11z"/>
<path d="M4090 1639 c0 -5 5 -7 10 -4 6 3 10 8 10 11 0 2 -4 4 -10 4 -5 0 -10
-5 -10 -11z"/>
<path d="M2313 1625 c0 -8 4 -12 9 -9 5 3 6 10 3 15 -9 13 -12 11 -12 -6z"/>
<path d="M3016 893 c-3 -7 0 -15 6 -19 7 -5 8 -2 3 6 -6 10 -4 12 8 7 8 -3 17
0 20 6 3 7 -3 13 -14 13 -10 0 -21 -6 -23 -13z"/>
<path d="M3365 900 c-3 -5 -1 -10 4 -10 6 0 11 5 11 10 0 6 -2 10 -4 10 -3 0
-8 -4 -11 -10z"/>
<path d="M3426 899 c2 -4 -1 -9 -8 -11 -9 -3 -9 -6 0 -12 7 -4 12 -2 12 4 0 6
4 9 9 6 5 -3 11 0 14 7 3 7 -3 13 -13 13 -10 0 -17 -3 -14 -7z"/>
<path d="M3594 896 c-10 -8 -16 -18 -11 -22 4 -4 7 -2 7 4 0 7 7 12 15 12 8 0
15 5 15 10 0 13 -3 13 -26 -4z"/>
<path d="M3666 899 c2 -4 -1 -9 -8 -11 -9 -3 -9 -6 0 -12 7 -4 12 -2 12 4 0 6
4 9 9 6 5 -3 11 0 14 7 3 7 -3 13 -13 13 -10 0 -17 -3 -14 -7z"/>
<path d="M755 891 c-3 -5 -2 -12 3 -15 5 -3 9 1 9 9 0 17 -3 19 -12 6z"/>
<path d="M3067 887 c-3 -8 1 -14 8 -14 7 0 11 6 8 14 -3 7 -6 13 -8 13 -2 0
-5 -6 -8 -13z"/>
<path d="M3227 887 c-3 -8 1 -14 8 -14 7 0 11 6 8 14 -3 7 -6 13 -8 13 -2 0
-5 -6 -8 -13z"/>
<path d="M3466 883 c-6 -14 -5 -15 5 -6 7 7 10 15 7 18 -3 3 -9 -2 -12 -12z"/>
<path d="M3557 885 c-4 -8 -3 -16 1 -19 4 -3 9 4 9 15 2 23 -3 25 -10 4z"/>
<path d="M3707 887 c-3 -8 1 -14 8 -14 7 0 11 6 8 14 -3 7 -6 13 -8 13 -2 0
-5 -6 -8 -13z"/>
<path d="M2911 877 c-8 -10 -7 -14 2 -14 8 0 14 6 14 14 0 7 -1 13 -2 13 -2 0
-8 -6 -14 -13z"/>
<path d="M4336 874 c-5 -14 -4 -15 9 -4 17 14 19 20 6 20 -5 0 -12 -7 -15 -16z"/>
<path d="M2900 839 c0 -5 5 -7 10 -4 6 3 10 8 10 11 0 2 -4 4 -10 4 -5 0 -10
-5 -10 -11z"/>
<path d="M3830 836 c0 -2 8 -10 18 -17 15 -13 16 -12 3 4 -13 16 -21 21 -21
13z"/>
<path d="M2069 828 c0 -2 -2 -13 -3 -26 -3 -21 -2 -21 15 -6 18 16 17 34 -2
34 -5 0 -9 -1 -10 -2z"/>
<path d="M2482 807 c-6 -7 -8 -18 -4 -24 6 -9 11 -6 20 7 13 22 0 36 -16 17z"/>
<path d="M4253 805 c-3 -9 -3 -18 -1 -21 3 -3 8 4 11 16 6 23 -1 27 -10 5z"/>
<path d="M1235 790 c-3 -6 1 -7 9 -4 18 7 21 14 7 14 -6 0 -13 -4 -16 -10z"/>
<path d="M1670 776 c0 -2 8 -10 18 -17 15 -13 16 -12 3 4 -13 16 -21 21 -21
13z"/>
<path d="M1636 753 c-6 -14 -5 -15 5 -6 7 7 10 15 7 18 -3 3 -9 -2 -12 -12z"/>
<path d="M1721 751 c-9 -6 -10 -11 -2 -15 6 -4 11 -2 11 4 0 6 5 8 12 4 7 -4
8 -3 4 4 -8 14 -7 14 -25 3z"/>
<path d="M2435 741 c-3 -5 -2 -12 3 -15 5 -3 9 1 9 9 0 17 -3 19 -12 6z"/>
<path d="M2555 740 c27 -12 43 -12 25 0 -8 5 -22 9 -30 9 -10 0 -8 -3 5 -9z"/>
<path d="M2830 746 c0 -2 7 -7 16 -10 8 -3 12 -2 9 4 -6 10 -25 14 -25 6z"/>
<path d="M4210 739 c0 -5 5 -7 10 -4 6 3 10 8 10 11 0 2 -4 4 -10 4 -5 0 -10
-5 -10 -11z"/>
<path d="M4182 731 c-11 -7 -11 -9 0 -14 9 -3 15 1 15 9 0 8 -1 14 -1 14 -1 0
-7 -4 -14 -9z"/>
<path d="M1510 705 c-7 -8 -16 -13 -20 -10 -4 3 -14 -3 -21 -13 -13 -15 -12
-16 4 -3 14 11 17 11 17 0 1 -9 4 -8 11 4 6 9 14 15 20 12 5 -4 9 1 9 9 0 20
-4 20 -20 1z"/>
<path d="M2777 709 c7 -7 15 -10 18 -7 3 3 -2 9 -12 12 -14 6 -15 5 -6 -5z"/>
<path d="M2646 697 c3 -10 9 -15 12 -12 3 3 0 11 -7 18 -10 9 -11 8 -5 -6z"/>
<path d="M2734 698 c-4 -6 -3 -8 4 -4 5 3 12 1 14 -6 3 -8 6 -9 11 -1 4 6 0
13 -8 17 -8 3 -17 0 -21 -6z"/>
<path d="M1109 683 c-13 -16 -12 -17 4 -4 16 13 21 21 13 21 -2 0 -10 -8 -17
-17z"/>
<path d="M2193 685 c0 -8 4 -12 9 -9 5 3 6 10 3 15 -9 13 -12 11 -12 -6z"/>
<path d="M2307 688 c2 -5 10 -8 18 -8 8 0 16 3 18 8 3 4 -5 7 -18 7 -13 0 -21
-3 -18 -7z"/>
<path d="M2615 691 c-3 -5 -2 -12 3 -15 5 -3 9 1 9 9 0 17 -3 19 -12 6z"/>
<path d="M1810 686 c0 -2 7 -7 16 -10 8 -3 12 -2 9 4 -6 10 -25 14 -25 6z"/>
<path d="M2273 675 c0 -8 4 -12 9 -9 4 3 8 9 8 15 0 5 -4 9 -8 9 -5 0 -9 -7
-9 -15z"/>
<path d="M4000 680 c-9 -6 -10 -10 -3 -10 6 0 15 5 18 10 8 12 4 12 -15 0z"/>
<path d="M4995 141 c-3 -5 -2 -12 3 -15 5 -3 9 1 9 9 0 17 -3 19 -12 6z"/>
<path d="M340 78 c0 -4 5 -8 11 -8 5 0 7 -6 3 -12 -4 -7 -3 -9 1 -5 15 13 14
34 -1 34 -8 0 -14 -4 -14 -9z"/>
<path d="M383 69 c-2 -23 3 -25 10 -4 4 8 3 16 -1 19 -4 3 -9 -4 -9 -15z"/>
<path d="M547 79 c7 -7 15 -10 18 -7 3 3 -2 9 -12 12 -14 6 -15 5 -6 -5z"/>
<path d="M624 82 c3 -5 1 -12 -6 -14 -8 -3 -9 -6 -1 -11 6 -4 13 0 17 8 3 8 0
17 -6 21 -6 4 -8 3 -4 -4z"/>
<path d="M820 78 c0 -4 5 -8 11 -8 5 0 7 -6 3 -12 -4 -7 -3 -9 1 -5 15 13 14
34 -1 34 -8 0 -14 -4 -14 -9z"/>
<path d="M863 69 c-2 -23 3 -25 10 -4 4 8 3 16 -1 19 -4 3 -9 -4 -9 -15z"/>
<path d="M1027 79 c7 -7 15 -10 18 -7 3 3 -2 9 -12 12 -14 6 -15 5 -6 -5z"/>
<path d="M1104 82 c3 -5 1 -12 -6 -14 -8 -3 -9 -6 -1 -11 6 -4 13 0 17 8 3 8
0 17 -6 21 -6 4 -8 3 -4 -4z"/>
<path d="M1300 78 c0 -4 5 -8 11 -8 5 0 7 -6 3 -12 -4 -7 -3 -9 1 -5 15 13 14
34 -1 34 -8 0 -14 -4 -14 -9z"/>
<path d="M1343 69 c-2 -23 3 -25 10 -4 4 8 3 16 -1 19 -4 3 -9 -4 -9 -15z"/>
<path d="M1507 79 c7 -7 15 -10 18 -7 3 3 -2 9 -12 12 -14 6 -15 5 -6 -5z"/>
<path d="M1584 82 c3 -5 1 -12 -6 -14 -8 -3 -9 -6 -1 -11 6 -4 13 0 17 8 3 8
0 17 -6 21 -6 4 -8 3 -4 -4z"/>
<path d="M1780 78 c0 -4 5 -8 11 -8 5 0 7 -6 3 -12 -4 -7 -3 -9 1 -5 15 13 14
34 -1 34 -8 0 -14 -4 -14 -9z"/>
<path d="M1823 69 c-2 -23 3 -25 10 -4 4 8 3 16 -1 19 -4 3 -9 -4 -9 -15z"/>
<path d="M1987 79 c7 -7 15 -10 18 -7 3 3 -2 9 -12 12 -14 6 -15 5 -6 -5z"/>
<path d="M2064 82 c3 -5 1 -12 -6 -14 -8 -3 -9 -6 -1 -11 6 -4 13 0 17 8 3 8
0 17 -6 21 -6 4 -8 3 -4 -4z"/>
<path d="M2260 78 c0 -4 5 -8 11 -8 5 0 7 -6 3 -12 -4 -7 -3 -9 1 -5 15 13 14
34 -1 34 -8 0 -14 -4 -14 -9z"/>
<path d="M2303 69 c-2 -23 3 -25 10 -4 4 8 3 16 -1 19 -4 3 -9 -4 -9 -15z"/>
<path d="M2467 79 c7 -7 15 -10 18 -7 3 3 -2 9 -12 12 -14 6 -15 5 -6 -5z"/>
<path d="M2544 82 c3 -5 1 -12 -6 -14 -8 -3 -9 -6 -1 -11 6 -4 13 0 17 8 3 8
0 17 -6 21 -6 4 -8 3 -4 -4z"/>
<path d="M2740 78 c0 -4 5 -8 11 -8 5 0 7 -6 3 -12 -4 -7 -3 -9 1 -5 15 13 14
34 -1 34 -8 0 -14 -4 -14 -9z"/>
<path d="M2783 69 c-2 -23 3 -25 10 -4 4 8 3 16 -1 19 -4 3 -9 -4 -9 -15z"/>
<path d="M2947 79 c7 -7 15 -10 18 -7 3 3 -2 9 -12 12 -14 6 -15 5 -6 -5z"/>
<path d="M3024 82 c3 -5 1 -12 -6 -14 -8 -3 -9 -6 -1 -11 6 -4 13 0 17 8 3 8
0 17 -6 21 -6 4 -8 3 -4 -4z"/>
<path d="M3220 78 c0 -4 5 -8 11 -8 5 0 7 -6 3 -12 -4 -7 -3 -9 1 -5 15 13 14
34 -1 34 -8 0 -14 -4 -14 -9z"/>
<path d="M3263 69 c-2 -23 3 -25 10 -4 4 8 3 16 -1 19 -4 3 -9 -4 -9 -15z"/>
<path d="M3427 79 c7 -7 15 -10 18 -7 3 3 -2 9 -12 12 -14 6 -15 5 -6 -5z"/>
<path d="M3504 82 c3 -5 1 -12 -6 -14 -8 -3 -9 -6 -1 -11 6 -4 13 0 17 8 3 8
0 17 -6 21 -6 4 -8 3 -4 -4z"/>
<path d="M3700 78 c0 -4 5 -8 11 -8 5 0 7 -6 3 -12 -4 -7 -3 -9 1 -5 15 13 14
34 -1 34 -8 0 -14 -4 -14 -9z"/>
<path d="M3743 69 c-2 -23 3 -25 10 -4 4 8 3 16 -1 19 -4 3 -9 -4 -9 -15z"/>
<path d="M3907 79 c7 -7 15 -10 18 -7 3 3 -2 9 -12 12 -14 6 -15 5 -6 -5z"/>
<path d="M3984 82 c3 -5 1 -12 -6 -14 -8 -3 -9 -6 -1 -11 6 -4 13 0 17 8 3 8
0 17 -6 21 -6 4 -8 3 -4 -4z"/>
<path d="M4180 78 c0 -4 5 -8 11 -8 5 0 7 -6 3 -12 -4 -7 -3 -9 1 -5 15 13 14
34 -1 34 -8 0 -14 -4 -14 -9z"/>
<path d="M4223 69 c-2 -23 3 -25 10 -4 4 8 3 16 -1 19 -4 3 -9 -4 -9 -15z"/>
<path d="M4387 79 c7 -7 15 -10 18 -7 3 3 -2 9 -12 12 -14 6 -15 5 -6 -5z"/>
<path d="M4464 82 c3 -5 1 -12 -6 -14 -8 -3 -9 -6 -1 -11 6 -4 13 0 17 8 3 8
0 17 -6 21 -6 4 -8 3 -4 -4z"/>
<path d="M4677 71 c-4 -17 -3 -21 5 -13 5 5 8 16 6 23 -3 8 -7 3 -11 -10z"/>
<path d="M4873 72 c2 -12 6 -24 10 -28 3 -4 4 4 2 16 -6 30 -16 40 -12 12z"/>
</g>
</svg>
